SplineFontDB: 3.2
FontName: NewEng_Hangeul_Style_Chunky
FullName: NewEng Hangeul Style Chunky
FamilyName: NewEng Hangeul
Weight: Heavy
Copyright: Copyright (c) 2024, Phlowyd (Farran Lee De Tao)
UComments: "2024-5-8: Created with FontForge (http://fontforge.org)"
FontLog: "24-05-2024:+AAoA-Loads more new combined glyphs and diacritic anchors.+AAoA-Added AEae and Hwair/hv. +AAoACgAA-23-05-2024:+AAoA-Added support for Vietnamese and a bunch of other combined glyphs.+AAoA-Fixed a few combining diacritics' positions.+AAoACgAA-17-05-2024: +AAoA-All core diacritics added and positioned using Anchors.+AAoA-Special kerning for a small subset of letters disrupts next letter positioning when diacritics are placed over them. Strange, can't work out the right way to handle this."
Version: 001.005
ItalicAngle: 0
UnderlinePosition: -100
UnderlineWidth: 50
Ascent: 800
Descent: 200
InvalidEm: 0
LayerCount: 2
Layer: 0 0 "Back" 1
Layer: 1 0 "Fore" 0
XUID: [1021 59 1062431447 24466]
StyleMap: 0x0000
FSType: 0
OS2Version: 0
OS2_WeightWidthSlopeOnly: 0
OS2_UseTypoMetrics: 1
CreationTime: 1715150662
ModificationTime: 1716534048
PfmFamily: 17
TTFWeight: 800
TTFWidth: 5
LineGap: 90
VLineGap: 90
OS2TypoAscent: 0
OS2TypoAOffset: 1
OS2TypoDescent: 0
OS2TypoDOffset: 1
OS2TypoLinegap: 90
OS2WinAscent: 0
OS2WinAOffset: 1
OS2WinDescent: 0
OS2WinDOffset: 1
HheadAscent: 0
HheadAOffset: 1
HheadDescent: 0
HheadDOffset: 1
OS2Vendor: 'PfEd'
Lookup: 4 0 1 "'liga' Standard Ligatures lookup 0" { "'liga' Standard Ligatures lookup 0-1"  "'liga' Non-standard Ligatures lookup 0-2"  } ['liga' ('DFLT' <'dflt' > 'armn' <'dflt' > 'cyrl' <'dflt' > 'grek' <'dflt' > 'latn' <'dflt' > ) ]
Lookup: 258 0 0 "'kern' Horizontal Kerning lookup 1" { "'kern' Horizontal Kerning lookup 1-1" [100,0,2] } ['kern' ('DFLT' <'dflt' > 'armn' <'dflt' > 'cyrl' <'dflt' > 'grek' <'dflt' > 'latn' <'dflt' > ) ]

StartChar: A
Encoding: 65 65 0
Width: 1075
Flags: W
HStem: -105.245 21G<74.9993 115.616 817.146 857.763> -105.245 21G<74.9993 115.616 817.146 857.763> 265.829 210.49<334.28 741.164> 636.901 210.49<334.28 792.146> 827.392 20G<217.676 258.292>
VStem: 50 233.292<55.4521 265.829 433.535 636.901> 792.146 233.292<55.4521 308.608 476.319 636.901>
AnchorPoint: "Attacha 4 Cedilla" 537 0 basechar 0
AnchorPoint: "Anchora 3" 537 -200 basechar 0
AnchorPoint: "Attacha 2" 843 644 basechar 0
AnchorPoint: "Anchora 1" 537 975 basechar 0
LayerCount: 2
Back
SplineSet
1312.42871094 659.573242188 m 1
 1312.42871094 436.83203125 l 1
 1334.13183594 447.2265625 1355.57226562 453.647460938 1373.62304688 453.647460938 c 2
 1841.86523438 453.647460938 l 1
 1841.86523438 659.573242188 l 1
 1312.42871094 659.573242188 l 1
1873.44140625 -82.5732421875 m 0
 1863.01855469 -82.5732421875 1841.86523438 -79.876953125 1841.86523438 -57.9951171875 c 2
 1841.86523438 305.313476562 l 1
 1820.16503906 294.920898438 1798.7265625 288.500976562 1780.67773438 288.500976562 c 2
 1312.42871094 288.500976562 l 1
 1312.42871094 57.9951171875 l 2
 1312.42871094 6.2158203125 1198.42089844 -82.5732421875 1131.29492188 -82.5732421875 c 0
 1120.87207031 -82.5732421875 1099.71875 -79.876953125 1099.71875 -57.9951171875 c 2
 1099.71875 684.151367188 l 2
 1099.71875 735.930664062 1213.72753906 824.719726562 1280.85351562 824.719726562 c 0
 1289.97753906 824.719726562 1307.32421875 822.653320312 1311.50585938 807.459960938 c 1
 1333.52246094 818.115234375 1355.31640625 824.719726562 1373.62304688 824.719726562 c 2
 2023 824.719726562 l 2
 2033.42285156 824.719726562 2054.57519531 822.0234375 2054.57519531 800.141601562 c 2
 2054.57519531 57.9951171875 l 2
 2054.57519531 6.2158203125 1940.56738281 -82.5732421875 1873.44140625 -82.5732421875 c 0
260 371.005859375 m 5
 816 371.005859375 l 1029
167 0 m 5
 167 742.006835938 l 1029
260 742.006835938 m 5
 909 742.00390625 l 5
 909 0 l 1029
EndSplineSet
Fore
SplineSet
283.291992188 55.4521484375 m 1xae
 91.78125 -105.245117188 l 1
 50 -55.4521484375 l 1
 50 686.694335938 l 1
 241.510742188 847.391601562 l 1xae
 279.840820312 801.7109375 l 1
 334.280273438 847.391601562 l 1x36
 983.657226562 847.391601562 l 1
 1025.43847656 797.598632812 l 1
 1025.43847656 55.4521484375 l 1
 833.927734375 -105.245117188 l 1
 792.146484375 -55.4521484375 l 1
 792.146484375 308.608398438 l 1
 741.1640625 265.829101562 l 1
 283.291992188 265.829101562 l 1
 283.291992188 55.4521484375 l 1xae
283.291992188 636.901367188 m 1x36
 283.291992188 433.53515625 l 1
 334.280273438 476.319335938 l 1
 792.146484375 476.319335938 l 1
 792.146484375 636.901367188 l 1
 283.291992188 636.901367188 l 1x36
EndSplineSet
Validated: 1
EndChar

StartChar: Amacron
Encoding: 256 256 2
Width: 1075
HStem: -105.245 21G<74.9993 115.616 74.9993 115.616 817.146 857.763 817.146 857.763> 265.829 210.49<334.28 741.164> 636.901 210.49<334.28 792.146> 827.392 20G<217.676 258.292> 926.942 100.115<292.706 776.679>
VStem: 50 233.292<55.4521 265.829 433.535 636.901> 792.146 233.292<55.4521 308.608 476.319 636.901>
AnchorPoint: "Attacha 2" 843 644 basechar 0
AnchorPoint: "Anchora 3" 537 -200 basechar 0
AnchorPoint: "Attacha 4 Cedilla" 537 0 basechar 0
AnchorPoint: "Anchora 1" 537 1123 basechar 0
LayerCount: 2
Back
SplineSet
249.384765625 976 m 5
 806 976 l 1029
EndSplineSet
Fore
Refer: 86 772 N 1 0 0 1 1074 1 2
Refer: 0 65 N 1 0 0 1 0 0 3
Validated: 1
EndChar

StartChar: B
Encoding: 66 66 3
Width: 1075
Flags: W
HStem: -105.245 210.49<334.28 741.164> -105.245 21G<74.9993 115.616 817.152 857.769> 265.829 210.49<334.28 606.613 788.688 792.152> 636.901 210.49<334.28 606.613> 827.392 20G<217.676 258.292>
VStem: 50 233.292<62.4609 265.829 433.535 636.901> 792.152 233.292<105.245 265.829>
AnchorPoint: "Attacha 2" 843 644 basechar 0
AnchorPoint: "Attacha 4 Cedilla" 537 0 basechar 0
AnchorPoint: "Anchora 1" 537 975 basechar 0
AnchorPoint: "Anchora 3" 537 -200 basechar 0
LayerCount: 2
Back
SplineSet
207.21875 0 m 5
 763.83203125 0 l 1029
207.21875 371.07421875 m 5
 856.6015625 371.07421875 l 5
 856.6015625 0 l 1029
207.21875 742.146484375 m 5
 671.0625 742.146484375 l 5
 671.0625 463.84375 l 1029
114.44921875 742.146484375 m 5
 114.44921875 0 l 1029
EndSplineSet
Fore
SplineSet
50 686.694335938 m 1x66
 241.510742188 847.391601562 l 1x6e
 279.840820312 801.7109375 l 1
 334.280273438 847.391601562 l 1x36
 798.124023438 847.391601562 l 1
 839.905273438 797.598632812 l 1
 839.905273438 519.295898438 l 1
 788.688476562 476.319335938 l 1
 983.663085938 476.319335938 l 1
 1025.44433594 426.526367188 l 1
 1025.44433594 55.4521484375 l 1
 833.93359375 -105.245117188 l 1x6e
 795.603515625 -59.564453125 l 1
 741.1640625 -105.245117188 l 1xa6
 184.55078125 -105.245117188 l 1
 146.220703125 -59.564453125 l 1
 91.78125 -105.245117188 l 1
 50 -55.4521484375 l 1
 50 686.694335938 l 1x66
283.291992188 636.901367188 m 1x36
 283.291992188 433.53515625 l 1
 334.280273438 476.319335938 l 1
 606.61328125 476.319335938 l 1
 606.61328125 636.901367188 l 1
 283.291992188 636.901367188 l 1x36
283.291992188 265.829101562 m 1
 283.291992188 62.4609375 l 1
 334.280273438 105.245117188 l 1
 792.15234375 105.245117188 l 1xa6
 792.15234375 265.829101562 l 1
 283.291992188 265.829101562 l 1
EndSplineSet
Validated: 1
EndChar

StartChar: C
Encoding: 67 67 4
Width: 1075
Flags: W
HStem: -105.245 210.49<283.292 833.928> 636.901 210.49<283.292 833.928>
VStem: 50 233.292<105.245 593.931>
AnchorPoint: "Attacha 2" 843 644 basechar 0
AnchorPoint: "Attacha 4 Cedilla" 537 0 basechar 0
AnchorPoint: "Anchora 1" 537 975 basechar 0
AnchorPoint: "Anchora 3" 537 -200 basechar 0
LayerCount: 2
Back
SplineSet
133.180664062 649.3828125 m 5
 133.180664062 0 l 5
 875.327148438 0 l 1029
133.180664062 742.146484375 m 5
 875.327148438 742.146484375 l 1029
EndSplineSet
Fore
SplineSet
91.78125 636.901367188 m 1
 50 686.694335938 l 1
 241.510742188 847.391601562 l 1
 983.657226562 847.391601562 l 1
 1025.43847656 797.598632812 l 1
 833.927734375 636.901367188 l 1
 283.291992188 636.901367188 l 1
 283.291992188 105.245117188 l 1
 983.657226562 105.245117188 l 1
 1025.43847656 55.4521484375 l 1
 833.927734375 -105.245117188 l 1
 91.78125 -105.245117188 l 1
 50 -55.4521484375 l 1
 50 593.930664062 l 1
 101.2109375 636.901367188 l 1
 91.78125 636.901367188 l 1
EndSplineSet
Validated: 1
EndChar

StartChar: D
Encoding: 68 68 5
Width: 1075
Flags: W
HStem: -105.245 210.49<334.28 741.164> -105.245 21G<74.9993 115.616 817.146 857.763> 636.901 210.49<334.28 648.395> 827.392 20G<217.676 258.292>
VStem: 50 233.292<62.4609 636.901> 792.146 233.292<105.245 493.149>
AnchorPoint: "Attacha 2" 843 644 basechar 0
AnchorPoint: "Attacha 4 Cedilla" 537 0 basechar 0
AnchorPoint: "Anchora 3" 537 -200 basechar 0
AnchorPoint: "Anchora 1" 537 975 basechar 0
LayerCount: 2
Back
SplineSet
198.89453125 0 m 5
 755.5078125 0 l 1029
198.89453125 742.146484375 m 5
 662.73828125 742.146484375 l 5
 848.271484375 556.61328125 l 5
 848.271484375 0 l 1029
106.125 742.146484375 m 5
 106.125 0 l 1029
EndSplineSet
Fore
SplineSet
50 686.694335938 m 1x4c
 241.510742188 847.391601562 l 1x5c
 279.840820312 801.7109375 l 1
 334.280273438 847.391601562 l 1x2c
 798.124023438 847.391601562 l 1
 983.657226562 661.858398438 l 1
 1025.43847656 612.065429688 l 1
 1025.43847656 55.4521484375 l 1
 833.927734375 -105.245117188 l 1x5c
 795.599609375 -59.5673828125 l 1
 741.1640625 -105.245117188 l 1x8c
 184.55078125 -105.245117188 l 1
 146.220703125 -59.564453125 l 1
 91.78125 -105.245117188 l 1
 50 -55.4521484375 l 1
 50 686.694335938 l 1x4c
283.291992188 636.901367188 m 1xac
 283.291992188 62.4609375 l 1
 334.280273438 105.245117188 l 1
 792.146484375 105.245117188 l 1
 792.146484375 493.149414062 l 1
 648.39453125 636.901367188 l 1
 283.291992188 636.901367188 l 1xac
EndSplineSet
Validated: 1
EndChar

StartChar: Ccedilla
Encoding: 199 199 6
Width: 1075
Flags: W
HStem: -105.245 210.49<379.976 561.858> 264.755 210.49<283.292 722.35 775.21 833.936> 636.901 210.49<283.292 833.936>
AnchorPoint: "Attacha 2" 843 644 basechar 0
AnchorPoint: "Attacha 4 Cedilla" 537 0 basechar 0
AnchorPoint: "Anchora 3" 537 -200 basechar 0
AnchorPoint: "Anchora 1" 537 975 basechar 0
LayerCount: 2
Back
SplineSet
676 185.5390625 m 5
 676 0 l 5
 306 0 l 1029
166.646484375 649.3828125 m 1
 166.646484375 370 l 1
 908.80078125 370 l 1025
166.646484375 742.146484375 m 1
 908.80078125 742.146484375 l 1025
EndSplineSet
Fore
SplineSet
-72 1064 m 1049
91.78125 636.901367188 m 1
 50 686.694335938 l 1
 241.510742188 847.391601562 l 1
 983.665039062 847.391601562 l 1
 1025.44628906 797.598632812 l 1
 833.935546875 636.901367188 l 1
 283.291992188 636.901367188 l 1
 283.291992188 475.245117188 l 1
 983.665039062 475.245117188 l 1
 1025.44628906 425.452148438 l 1
 833.935546875 264.754882812 l 1
 775.209960938 264.754882812 l 1
 795.150390625 240.991210938 l 1
 795.150390625 55.4521484375 l 1
 603.639648438 -105.245117188 l 1
 230.24609375 -105.245117188 l 1
 188.46484375 -55.4521484375 l 1
 379.975585938 105.245117188 l 1
 561.858398438 105.245117188 l 1
 561.858398438 130.086914062 l 1
 722.349609375 264.754882812 l 1
 91.78125 264.754882812 l 1
 50 314.547851562 l 1
 50 593.930664062 l 1
 101.2109375 636.901367188 l 1
 91.78125 636.901367188 l 1
EndSplineSet
Validated: 1
EndChar

StartChar: E
Encoding: 69 69 7
Width: 1075
Flags: W
HStem: -105.245 210.49<283.292 833.936> 265.829 210.49<324.549 648.395> 636.901 210.49<283.292 833.936>
VStem: 50 233.292<105.245 265.829 441.7 593.931>
AnchorPoint: "Attacha 2" 843 644 basechar 0
AnchorPoint: "Attacha 4 Cedilla" 537 0 basechar 0
AnchorPoint: "Anchora 3" 537 -200 basechar 0
AnchorPoint: "Anchora 1" 537 975 basechar 0
LayerCount: 2
Back
SplineSet
247.610351562 371.07421875 m 5
 721.185546875 371.07421875 l 1029
164.572265625 649.3828125 m 5
 164.572265625 0 l 5
 906.7265625 0 l 1029
164.572265625 742.146484375 m 5
 906.7265625 742.146484375 l 1029
EndSplineSet
Fore
SplineSet
91.78125 636.901367188 m 1
 50 686.694335938 l 1
 241.510742188 847.391601562 l 1
 983.665039062 847.391601562 l 1
 1025.44628906 797.598632812 l 1
 833.935546875 636.901367188 l 1
 283.291992188 636.901367188 l 1
 283.291992188 441.700195312 l 1
 324.548828125 476.319335938 l 1
 798.124023438 476.319335938 l 1
 839.905273438 426.526367188 l 1
 648.39453125 265.829101562 l 1
 283.291992188 265.829101562 l 1
 283.291992188 105.245117188 l 1
 983.665039062 105.245117188 l 1
 1025.44628906 55.4521484375 l 1
 833.935546875 -105.245117188 l 1
 91.78125 -105.245117188 l 1
 50 -55.4521484375 l 1
 50 593.930664062 l 1
 101.2109375 636.901367188 l 1
 91.78125 636.901367188 l 1
EndSplineSet
Validated: 1
EndChar

StartChar: Dcroat
Encoding: 272 272 8
Width: 1117
Flags: W
HStem: -105.245 210.49<375.376 802.942> -105.245 21G<115.864 156.481> 636.755 210.49<375.376 689.646> 827.245 20G<258.541 299.158>
VStem: 90.8643 233.293<62.2676 365.755 576.245 636.755> 833.864 233.293<137.952 493.312>
AnchorPoint: "Attacha 2" 843 644 basechar 0
AnchorPoint: "Anchora 3" 537 -200 basechar 0
AnchorPoint: "Attacha 4 Cedilla" 537 0 basechar 0
AnchorPoint: "Anchora 1" 537 975 basechar 0
LayerCount: 2
Back
SplineSet
-1240.85449219 636.901367188 m 1xac
 -1240.85449219 476.319335938 l 1
 -1004.33300781 476.319335938 l 1
 -962.551757812 426.526367188 l 1
 -1154.0625 265.829101562 l 1
 -1240.85449219 265.829101562 l 1
 -1240.85449219 62.4658203125 l 1
 -1189.87207031 105.245117188 l 1
 -732 105.245117188 l 1
 -732 493.1484375 l 1
 -875.7578125 636.901367188 l 1
 -1240.85449219 636.901367188 l 1xac
  Spiro
    -1240.85 636.901 v
    -1240.85 476.319 v
    -1004.33 476.319 v
    -962.55 426.526 v
    -1154.06 265.829 v
    -1240.85 265.829 v
    -1240.85 62.4658 v
    -1189.87 105.245 v
    -732 105.245 v
    -732 493.148 v
    -875.758 636.901 v
    0 0 z
  EndSpiro
-1474.14648438 265.829101562 m 1x4c
 -1567.71679688 265.829101562 l 1
 -1609.49804688 315.622070312 l 1
 -1474.14648438 429.1953125 l 1
 -1474.14648438 686.694335938 l 1
 -1282.63574219 847.391601562 l 1x5c
 -1244.30761719 801.713867188 l 1
 -1189.87207031 847.391601562 l 1x2c
 -726.028320312 847.391601562 l 1
 -540.489257812 661.858398438 l 1
 -498.708007812 612.065429688 l 1
 -498.708007812 55.4521484375 l 1
 -690.21875 -105.245117188 l 1x5c
 -728.548828125 -59.564453125 l 1
 -782.98828125 -105.245117188 l 1x8c
 -1339.6015625 -105.245117188 l 1
 -1377.9296875 -59.5673828125 l 1
 -1432.36523438 -105.245117188 l 1
 -1474.14648438 -55.4521484375 l 1
 -1474.14648438 265.829101562 l 1x4c
  Spiro
    -1474.15 265.829 v
    -1567.72 265.829 v
    -1609.5 315.622 v
    -1474.15 429.195 v
    -1474.15 686.694 v
    -1282.64 847.392 v
    -1244.31 801.714 v
    -1189.87 847.392 v
    -726.028 847.392 v
    -540.489 661.858 v
    -498.708 612.065 v
    -498.708 55.4521 v
    -690.219 -105.245 v
    -728.549 -59.5645 v
    -782.988 -105.245 v
    -1339.6 -105.245 v
    -1377.93 -59.5674 v
    -1432.37 -105.245 v
    -1474.15 -55.4521 v
    0 0 z
  EndSpiro
-1347.63574219 742.146484375 m 1
 -1347.63574219 0 l 1025
-1254.87207031 742.146484375 m 1
 -791.028320312 742.146484375 l 1
 -605.489257812 556.61328125 l 1
 -605.489257812 0 l 1025
-1254.87207031 0 m 1
 -698.258789062 0 l 1025
-1438.88671875 371.07421875 m 1
 -1069.33300781 371.07421875 l 1025
EndSplineSet
Fore
SplineSet
90.8642578125 365.754882812 m 1x4c
 -23.21875 365.754882812 l 1
 -65 415.547851562 l 1
 126.510742188 576.245117188 l 1
 90.8642578125 576.245117188 l 1
 90.8642578125 686.547851562 l 1
 282.375976562 847.245117188 l 1x5c
 320.80078125 801.451171875 l 1
 375.375976562 847.245117188 l 1x2c
 839.375976562 847.245117188 l 1
 1025.37597656 662.245117188 l 1
 1067.15722656 612.452148438 l 1
 1067.15722656 137.952148438 l 1
 875.645507812 -22.7451171875 l 1
 875.447265625 -22.5078125 l 1
 842.526367188 -50.1005859375 809.6953125 -77.7822265625 776.645507812 -105.245117188 c 1x9c
 225.645507812 -105.245117188 l 1
 187.220703125 -59.451171875 l 1
 132.645507812 -105.245117188 l 1
 90.8642578125 -55.4521484375 l 1
 90.8642578125 365.754882812 l 1x4c
324.157226562 636.754882812 m 1xac
 324.157226562 576.245117188 l 1
 559.9296875 576.245117188 l 1
 601.7109375 526.452148438 l 1
 410.19921875 365.754882812 l 1
 324.157226562 365.754882812 l 1
 324.157226562 62.267578125 l 1
 375.375976562 105.245117188 l 1
 833.864257812 105.245117188 l 1
 833.864257812 493.311523438 l 1
 689.645507812 636.754882812 l 1
 324.157226562 636.754882812 l 1xac
EndSplineSet
Validated: 1
EndChar

StartChar: Emacron
Encoding: 274 274 11
Width: 1075
HStem: -105.245 210.49<283.292 833.936> 265.829 210.49<324.549 648.395> 636.901 210.49<283.292 833.936> 926.942 100.115<292.706 776.679>
VStem: 50 233.292<105.245 265.829 441.7 593.931>
AnchorPoint: "Attacha 2" 843 644 basechar 0
AnchorPoint: "Anchora 3" 537 -200 basechar 0
AnchorPoint: "Attacha 4 Cedilla" 537 0 basechar 0
AnchorPoint: "Anchora 1" 537 1123 basechar 0
LayerCount: 2
Back
SplineSet
194.34765625 324.439453125 m 5
 658.19140625 324.439453125 l 1029
101.578125 556.61328125 m 5
 101.578125 0 l 5
 843.724609375 0 l 1029
101.578125 649.3828125 m 5
 843.724609375 649.3828125 l 1029
194.34765625 834.91796875 m 5
 750.955078125 834.91796875 l 1029
EndSplineSet
Fore
Refer: 86 772 N 1 0 0 1 1074 1 2
Refer: 7 69 N 1 0 0 1 0 0 3
Validated: 1
EndChar

StartChar: Imacron
Encoding: 298 298 13
Width: 1075
HStem: -105.245 210.49<241.511 419.931 602.006 833.928> 636.901 210.49<241.511 465.851 653.223 833.928> 926.942 100.115<292.706 776.679>
VStem: 419.931 233.292<148.222 598.37>
AnchorPoint: "Attacha 2" 843 644 basechar 0
AnchorPoint: "Attacha 4 Cedilla" 537 0 basechar 0
AnchorPoint: "Anchora 1" 537 1123 basechar 0
AnchorPoint: "Anchora 3" 537 -200 basechar 0
LayerCount: 2
Back
SplineSet
90.0078125 0 m 1
 832.15625 0 l 1025
461.08203125 556.61328125 m 1
 461.08203125 92.76953125 l 1025
90.0078125 649.383789062 m 1
 832.15625 649.383789062 l 1025
182.771484375 834.91796875 m 1
 739.38671875 834.91796875 l 1025
EndSplineSet
Fore
Refer: 86 772 N 1 0 0 1 1074 1 2
Refer: 34 73 N 1 0 0 1 0 0 3
Validated: 1
EndChar

StartChar: Omacron
Encoding: 332 332 15
Width: 1075
HStem: -105.245 210.49<301.707 781.24> 636.901 210.49<294.2 773.732> 926.942 100.115<292.706 776.679>
VStem: 50 233.292<126.992 633.525> 792.147 233.292<108.621 615.154>
AnchorPoint: "Attacha 2" 843 644 basechar 0
AnchorPoint: "Attacha 4 Cedilla" 537 0 basechar 0
AnchorPoint: "Anchora 3" 537 -200 basechar 0
AnchorPoint: "Anchora 1" 537 1123 basechar 0
LayerCount: 2
Back
SplineSet
86.4765625 391.697265625 m 2
 86.4765625 670 86.4765625 670 364.780273438 670 c 2
 550.3203125 670 l 2
 828.624023438 670 828.624023438 670 828.624023438 391.697265625 c 2
 828.624023438 305 l 1
 828.624023438 278.302734375 l 2
 828.624023438 0 828.624023438 0 550.3203125 0 c 2
 364.780273438 0 l 2
 86.4765625 0 86.4765625 0 86.4765625 278.302734375 c 2
 86.4765625 311 l 1
 86.4765625 391.697265625 l 2
179.01953125 834.91796875 m 1
 735.633789062 834.91796875 l 1025
EndSplineSet
Fore
Refer: 86 772 N 1 0 0 1 1074 1 2
Refer: 40 79 N 1 0 0 1 0 0 3
Validated: 1
EndChar

StartChar: Umacron
Encoding: 362 362 17
Width: 1075
HStem: -105.245 21G<817.154 857.771> -105.245 210.49<283.292 741.166> 827.394 20G<217.676 258.293 217.676 258.293 959.83 1000.45 959.83 1000.45> 926.942 100.115<292.706 776.679>
VStem: 50 233.292<105.245 686.696> 792.154 233.292<105.245 686.696>
AnchorPoint: "Attacha 2" 843 644 basechar 0
AnchorPoint: "Anchora 1" 537 1123 basechar 0
AnchorPoint: "Attacha 4 Cedilla" 537 0 basechar 0
AnchorPoint: "Anchora 3" 537 -200 basechar 0
LayerCount: 2
Back
SplineSet
842.048828125 649.37890625 m 5
 842.048828125 -2.1376953125 l 1029
99.90234375 649.37890625 m 5
 99.90234375 0 l 5
 749.28515625 0 l 1029
192.671875 834.91796875 m 5
 749.28515625 834.91796875 l 1029
EndSplineSet
Fore
Refer: 86 772 N 1 0 0 1 1074 1 2
Refer: 48 85 N 1 0 0 1 0 0 3
Validated: 1
EndChar

StartChar: Phi
Encoding: 934 934 19
Width: 1075
Flags: W
HStem: 80.2959 210.49<283.292 421.074 654.366 792.147> 451.368 210.49<283.292 421.074 654.366 792.147>
VStem: 50 233.292<290.786 451.368> 421.074 233.292<-37.3174 80.2959 290.786 451.368 661.858 779.466> 792.147 233.292<290.786 451.368>
AnchorPoint: "Anchora 3" 537 -200 basechar 0
AnchorPoint: "Anchora 1" 537 975 basechar 0
AnchorPoint: "Attacha 4 Cedilla" 537 0 basechar 0
AnchorPoint: "Attacha 2" 843 644 basechar 0
LayerCount: 2
Back
SplineSet
462.102539062 834.91796875 m 5
 462.102539062 -92.76953125 l 1029
91.0283203125 556.61328125 m 5
 833.17578125 556.61328125 l 5
 833.17578125 185.541015625 l 5
 91.0283203125 185.541015625 l 5
 91.0283203125 556.61328125 l 5
EndSplineSet
Fore
SplineSet
421.07421875 779.465820312 m 1
 612.584960938 940.163085938 l 1
 654.366210938 890.370117188 l 1
 654.366210938 661.858398438 l 1
 983.658203125 661.858398438 l 1
 1025.43945312 612.065429688 l 1
 1025.43945312 240.993164062 l 1
 833.928710938 80.2958984375 l 1
 654.366210938 80.2958984375 l 1
 654.366210938 -37.3173828125 l 1
 462.85546875 -198.014648438 l 1
 421.07421875 -148.221679688 l 1
 421.07421875 80.2958984375 l 1
 91.78125 80.2958984375 l 1
 50 130.088867188 l 1
 50 501.161132812 l 1
 241.510742188 661.858398438 l 1
 421.07421875 661.858398438 l 1
 421.07421875 779.465820312 l 1
421.07421875 451.368164062 m 1
 283.291992188 451.368164062 l 1
 283.291992188 290.786132812 l 1
 421.07421875 290.786132812 l 1
 421.07421875 451.368164062 l 1
654.366210938 451.368164062 m 1
 654.366210938 290.786132812 l 1
 792.147460938 290.786132812 l 1
 792.147460938 451.368164062 l 1
 654.366210938 451.368164062 l 1
EndSplineSet
Validated: 1
EndChar

StartChar: F
Encoding: 70 70 20
Width: 1075
Flags: W
HStem: -105.245 21G<74.9993 115.616> -105.245 21G<74.9993 115.616> 265.829 210.49<334.28 648.395> 636.901 210.49<283.292 833.934>
VStem: 50 233.292<55.4521 265.829 433.535 593.931>
AnchorPoint: "Attacha 2" 843 644 basechar 0
AnchorPoint: "Attacha 4 Cedilla" 537 0 basechar 0
AnchorPoint: "Anchora 3" 537 -200 basechar 0
AnchorPoint: "Anchora 1" 537 975 basechar 0
LayerCount: 2
Back
SplineSet
197.791015625 371.07421875 m 5
 661.634765625 371.07421875 l 1029
105.021484375 649.3828125 m 5
 105.021484375 0 l 1029
105.021484375 742.146484375 m 5
 847.173828125 742.146484375 l 1029
EndSplineSet
Fore
SplineSet
283.291992188 265.829101562 m 1xb8
 283.291992188 55.4521484375 l 1
 91.78125 -105.245117188 l 1
 50 -55.4521484375 l 1
 50 593.930664062 l 1
 101.2109375 636.901367188 l 1
 91.78125 636.901367188 l 1
 50 686.694335938 l 1
 241.510742188 847.391601562 l 1
 983.663085938 847.391601562 l 1
 1025.44433594 797.598632812 l 1
 833.93359375 636.901367188 l 1
 283.291992188 636.901367188 l 1
 283.291992188 433.53515625 l 1
 334.280273438 476.319335938 l 1
 798.124023438 476.319335938 l 1
 839.905273438 426.526367188 l 1
 648.39453125 265.829101562 l 1
 283.291992188 265.829101562 l 1xb8
EndSplineSet
Validated: 1
EndChar

StartChar: G
Encoding: 71 71 21
Width: 1075
InSpiro: 1
Flags: W
HStem: -105.245 210.49<283.292 792.152> 265.829 210.49<612.584 792.152> 636.901 210.49<283.292 833.934>
VStem: 50 233.292<105.245 593.931>
AnchorPoint: "Attacha 2" 843 644 basechar 0
AnchorPoint: "Attacha 4 Cedilla" 537 0 basechar 0
AnchorPoint: "Anchora 1" 537 975 basechar 0
AnchorPoint: "Anchora 3" 537 -200 basechar 0
LayerCount: 2
Back
SplineSet
479.770507812 371.07421875 m 5
 850.849609375 371.07421875 l 5
 850.849609375 92.76953125 l 1029
108.697265625 649.3828125 m 5
 108.697265625 0 l 5
 850.849609375 0 l 1029
112.682617188 742.146484375 m 5
 850.849609375 742.146484375 l 1029
EndSplineSet
Fore
SplineSet
95.7666015625 636.901367188 m 1
 53.9853515625 686.694335938 l 1
 245.49609375 847.391601562 l 1
 983.663085938 847.391601562 l 1
 1025.44433594 797.598632812 l 1
 833.93359375 636.901367188 l 1
 283.291992188 636.901367188 l 1
 283.291992188 105.245117188 l 1
 792.15234375 105.245117188 l 1
 792.15234375 265.829101562 l 1
 462.854492188 265.829101562 l 1
 421.073242188 315.622070312 l 1
 612.583984375 476.319335938 l 1
 983.663085938 476.319335938 l 1
 1025.44433594 426.526367188 l 1
 1025.44433594 148.221679688 l 1
 974.227539062 105.245117188 l 1
 983.663085938 105.245117188 l 1
 1025.44433594 55.4521484375 l 1
 833.93359375 -105.245117188 l 1
 91.78125 -105.245117188 l 1
 50 -55.4521484375 l 1
 50 593.930664062 l 1
 101.2109375 636.901367188 l 1
 95.7666015625 636.901367188 l 1
  Spiro
    95.7666 636.901 v
    53.9854 686.694 v
    245.496 847.392 v
    983.663 847.392 v
    1025.44 797.599 v
    833.934 636.901 v
    283.292 636.901 v
    283.292 105.245 v
    792.152 105.245 v
    792.152 265.829 v
    462.854 265.829 v
    421.073 315.622 v
    612.584 476.319 v
    983.663 476.319 v
    1025.44 426.526 v
    1025.44 148.222 v
    974.228 105.245 v
    983.663 105.245 v
    1025.44 55.4521 v
    833.934 -105.245 v
    91.7812 -105.245 v
    50 -55.4521 v
    50 593.931 v
    101.211 636.901 v
    0 0 z
  EndSpiro
EndSplineSet
Validated: 1
EndChar

StartChar: uni021C
Encoding: 540 540 23
Width: 1068
Flags: W
HStem: -105.245 210.49<241.511 594.65> 264.754 210.497<453.511 595.608> 636.767 210.49<241.511 785>
AnchorPoint: "Attacha 2" 843 644 basechar 0
AnchorPoint: "Attacha 4 Cedilla" 537 0 basechar 0
AnchorPoint: "Anchora 3" 537 -200 basechar 0
AnchorPoint: "Anchora 1" 543 975 basechar 0
LayerCount: 2
Back
SplineSet
166.646484375 0 m 5
 648.646484375 0 l 5
 901.646484375 211 l 21
 901.470703125 370 l 5
 801.646484375 370 l 1053
378.646484375 370.005859375 m 5
 649.646484375 369.999023438 l 5
 901.646484375 580 l 5
 901.646484375 742.01171875 l 5
 166.646484375 742.01171875 l 1029
-941.500976562 0 m 1
 -292.123046875 0 l 1025
-934.6015625 742.146484375 m 1
 -199.353515625 742.146484375 l 1
 -669.962890625 271 l 1024
-549.424804688 371.07421875 m 0
 -199.353515625 371.07421875 l 1
 -199.353515625 0 l 1025
-1927.57226562 0 m 1
 -1278.19433594 0 l 1025
-1920.67285156 742.146484375 m 1
 -1185.42480469 742.146484375 l 1
 -1926.72460938 371.07421875 l 1
 -1185.42480469 371.07421875 l 1
 -1185.42480469 0 l 1025
EndSplineSet
Fore
SplineSet
785 636.766601562 m 1
 91.78125 636.766601562 l 1
 50 686.559570312 l 1
 241.510742188 847.256835938 l 1
 976.510742188 847.256835938 l 1
 1018.29199219 797.463867188 l 1
 1018.29199219 635.452148438 l 1
 870.900390625 511.44140625 722.883789062 388.0546875 574.78125 264.75390625 c 1
 303.78125 264.760742188 l 1
 262 314.553710938 l 1
 453.510742188 475.250976562 l 1
 724.510742188 475.244140625 l 1
 785 525.651367188 l 1
 785 636.766601562 l 1
91.78125 -105.245117188 m 1
 50 -55.4521484375 l 1
 241.510742188 105.245117188 l 1
 723.510742188 105.245117188 l 1
 784.999023438 156.525390625 l 1
 784.87890625 264.754882812 l 1
 726.78125 264.754882812 l 1
 685 314.547851562 l 1
 876.510742188 475.245117188 l 1
 976.334960938 475.245117188 l 1
 1018.11621094 425.452148438 l 1
 1018.29199219 266.452148438 l 1
 870.518554688 142.157226562 722.185546875 18.419921875 573.78125 -105.245117188 c 1
 91.78125 -105.245117188 l 1
EndSplineSet
Validated: 1
EndChar

StartChar: uniA7B0
Encoding: 42928 42928 25
Width: 1075
UnlinkRmOvrlpSave: 1
Flags: W
HStem: -105.245 21G<817.154 857.771> -105.245 21G<817.154 857.771> 827.392 20G<217.676 258.293 959.83 1000.45> 827.392 20G<217.676 258.293 959.83 1000.45>
VStem: 792.154 233.292<55.4521 308.613 476.319 686.694>
AnchorPoint: "Anchora 1" 543 975 basechar 0
LayerCount: 2
Back
SplineSet
207.666015625 0 m 5
 485.9765625 278.302734375 l 1029
764.28125 371.07421875 m 5
 300.4375 371.07421875 l 5
 114.896484375 742.146484375 l 1029
857.05078125 0 m 5
 857.05078125 742.146484375 l 1029
EndSplineSet
Fore
SplineSet
1025.44628906 55.4521484375 m 1xa8
 833.935546875 -105.245117188 l 1
 792.154296875 -55.4521484375 l 1
 792.154296875 308.61328125 l 1
 741.166015625 265.829101562 l 1
 277.322265625 265.829101562 l 1
 235.541015625 315.622070312 l 1
 50 686.694335938 l 1
 241.510742188 847.391601562 l 1
 283.291992188 797.598632812 l 1
 443.936523438 476.319335938 l 1
 792.154296875 476.319335938 l 1
 792.154296875 686.694335938 l 1
 983.665039062 847.391601562 l 1
 1025.44628906 797.598632812 l 1
 1025.44628906 55.4521484375 l 1xa8
383.918945312 34.3544921875 m 1
 167.412109375 -90.6455078125 l 1
 134.912109375 -34.3544921875 l 1
 413.22265625 243.948242188 l 1
 629.729492188 368.948242188 l 1
 662.229492188 312.657226562 l 1
 383.918945312 34.3544921875 l 1
EndSplineSet
EndChar

StartChar: uni0539
Encoding: 1337 1337 27
Width: 1068
Flags: W
HStem: -105.245 21G<74.9993 115.616 446.072 764.993 810.481 851.099> -105.245 21G<74.9993 115.616 446.072 764.993 810.481 851.099> 827.392 20G<217.676 258.293 942.352 993.775> 827.392 20G<217.676 258.293 942.352 993.775>
VStem: 50 233.292<55.4521 322.838 433.535 686.694> 785.482 233.292<105.245 612.779>
AnchorPoint: "Anchora 3" 537 -200 basechar 0
AnchorPoint: "Anchora 1" 537 975 basechar 0
AnchorPoint: "Attacha 4 Cedilla" 537 0 basechar 0
AnchorPoint: "Attacha 2" 843 644 basechar 0
LayerCount: 2
Back
SplineSet
469.873046875 278.302734375 m 5
 469.873046875 0 l 5
 748.177734375 0 l 1029
191.5703125 371.07421875 m 5
 834.283203125 742.146484375 l 5
 834.283203125 0 l 1029
98.80078125 742.146484375 m 5
 98.80078125 0 l 1029
EndSplineSet
Fore
SplineSet
50 686.694335938 m 1xac
 241.510742188 847.391601562 l 1
 283.291992188 797.598632812 l 1
 283.291992188 433.53515625 l 1
 334.280273438 476.319335938 l 1
 976.993164062 847.391601562 l 1
 1018.77441406 797.598632812 l 1
 1018.77441406 55.4521484375 l 1
 827.263671875 -105.245117188 l 1
 791.686523438 -62.8466796875 l 1
 741.158203125 -105.245117188 l 1
 462.853515625 -105.245117188 l 1
 421.072265625 -55.4521484375 l 1
 421.072265625 222.850585938 l 1
 612.583007812 383.547851562 l 1
 654.364257812 333.754882812 l 1
 654.364257812 105.245117188 l 1
 785.482421875 105.245117188 l 1
 785.482421875 612.779296875 l 1
 283.291992188 322.837890625 l 1
 283.291992188 55.4521484375 l 1
 91.78125 -105.245117188 l 1
 50 -55.4521484375 l 1
 50 686.694335938 l 1xac
EndSplineSet
Validated: 1
EndChar

StartChar: Eng
Encoding: 330 330 29
Width: 1075
Flags: W
HStem: -105.245 210.49<612.591 792.152> -105.245 21G<74.9993 115.616> 827.392 20G<217.676 258.293 959.828 1000.45> 827.392 20G<217.676 258.293 959.828 1000.45>
VStem: 50 233.292<55.4521 527.468> 792.152 233.292<105.245 308.613 532.742 686.694>
AnchorPoint: "Attacha 2" 843 644 basechar 0
AnchorPoint: "Attacha 4 Cedilla" 537 0 basechar 0
AnchorPoint: "Anchora 3" 537 -200 basechar 0
AnchorPoint: "Anchora 1" 543 975 basechar 0
LayerCount: 2
Back
SplineSet
829.173828125 742.146484375 m 5
 829.173828125 0 l 5
 458.1015625 0 l 1029
179.791015625 689.135742188 m 5
 736.404296875 371.07421875 l 1029
87.021484375 742.146484375 m 5
 87.021484375 0 l 1029
EndSplineSet
Fore
SplineSet
50 686.694335938 m 1x4c
 241.510742188 847.391601562 l 1
 283.291992188 797.598632812 l 1
 283.291992188 751.596679688 l 1
 334.280273438 794.380859375 l 1
 792.15234375 532.7421875 l 1
 792.15234375 686.694335938 l 1
 983.663085938 847.391601562 l 1
 1025.44433594 797.598632812 l 1
 1025.44433594 55.4521484375 l 1
 833.93359375 -105.245117188 l 1
 462.861328125 -105.245117188 l 1x6c
 421.080078125 -55.4521484375 l 1
 612.590820312 105.245117188 l 1
 792.15234375 105.245117188 l 1x8c
 792.15234375 308.61328125 l 1
 741.1640625 265.829101562 l 1
 283.291992188 527.467773438 l 1
 283.291992188 55.4521484375 l 1
 91.78125 -105.245117188 l 1
 50 -55.4521484375 l 1
 50 686.694335938 l 1x4c
EndSplineSet
Validated: 1
EndChar

StartChar: uni0222
Encoding: 546 546 31
Width: 1075
Flags: W
HStem: -105.245 230.304<296.364 694.006> -105.245 210.49<301.955 781.488> 286.941 230.304<381.929 783.681> 306.331 223.522<289.555 681.311> 306.755 210.49<295.156 776.43> 827.394 20G<217.676 258.293 959.83 1000.45> 827.394 20G<217.676 258.293 959.83 1000.45>
VStem: 50 233.292<126.587 303.974 531.042 686.696> 792.154 233.292<107.291 285.274 516.802 686.696>
AnchorPoint: "Anchora 1" 537 975 basechar 0
AnchorPoint: "Attacha 2" 843 644 basechar 0
AnchorPoint: "Attacha 4 Cedilla" 537 0 basechar 0
AnchorPoint: "Anchora 3" 537 -200 basechar 0
LayerCount: 2
Back
SplineSet
864.334960938 742.1484375 m 5
 864.334960938 439 l 1029
122.180664062 742.1484375 m 5
 122.180664062 618 l 5
 123.59765625 576.146484375 l 5
 129.67578125 412 130.786132812 412 364.180664062 412 c 6
 586.272460938 412 l 6
 819.666992188 412 857.329101562 412 863.407226562 247.853515625 c 5
 864.576171875 216.268554688 864.576171875 205.853515625 864.576171875 205.853515625 c 6
 864.576171875 206 l 6
 864.576171875 206 864.576171875 201.142578125 863.639648438 171 c 5
 858.326171875 0 822.87109375 0 586.272460938 0 c 6
 400.732421875 0 l 6
 163.673828125 0 128.541015625 0 123.334960938 172 c 5
 122.428710938 201.92578125 122.428710938 206 122.428710938 206 c 6
 122.428710938 205.853515625 l 6
 122.428710938 205.853515625 122.428710938 216.268554688 123.59765625 247.853515625 c 5
 129.67578125 412 167.180664062 412 400.732421875 412 c 14
 421.180664062 412 l 1053
1120.87695312 205.853515625 m 2
 1120.87695312 205.853515625 1120.87695312 216.268554688 1122.04589844 247.853515625 c 1
 1128.12402344 412 1165.78613281 412 1399.18066406 412 c 2
 1584.72070312 412 l 2
 1818.11523438 412 1855.77734375 412 1861.85546875 247.853515625 c 1
 1863.02441406 216.268554688 1863.02441406 205.853515625 1863.02441406 205.853515625 c 2
 1863.02441406 206 l 2
 1863.02441406 206 1863.02441406 201.142578125 1862.08789062 171 c 1
 1856.77441406 0 1821.31933594 0 1584.72070312 0 c 2
 1399.18066406 0 l 2
 1162.12207031 0 1126.98925781 0 1121.78320312 172 c 1
 1120.87695312 201.92578125 1120.87695312 206 1120.87695312 206 c 2
 1120.87695312 205.853515625 l 2
1862.78320312 742.1484375 m 1
 1862.78320312 412 l 1025
1120.62890625 742.1484375 m 1
 1120.62890625 412 l 1
 1770.01367188 412 l 1025
EndSplineSet
Fore
SplineSet
483.510742188 517.245117188 m 0x2180
 705.602539062 517.245117188 705.602539062 517.245117188 705.602539062 517.245117188 c 2x2180
 738.100585938 517.245117188 766.802734375 516.801757812 792.154296875 516.801757812 c 1
 792.154296875 686.696289062 l 1
 983.665039062 847.393554688 l 1
 1025.44628906 797.600585938 l 1
 1025.44628906 494.452148438 l 1
 974.96484375 452.092773438 l 1
 995.276367188 427.88671875 l 2
 1015.42285156 403.876953125 1022.22363281 365.296875 1024.51855469 303.305664062 c 0
 1025.60839844 273.861328125 1025.68261719 262.814453125 1025.6875 261.452148438 c 2
 1025.6875 261.305664062 l 2
 1025.67871094 260.309570312 1025.59960938 253.748046875 1024.75097656 226.452148438 c 0
 1022.42578125 151.615234375 1014.32714844 109.530273438 986.122070312 85.86328125 c 2
 794.611328125 -74.833984375 l 2
 758.368164062 -105.245117188 688.92578125 -105.245117188 555.873046875 -105.245117188 c 2
 370.333007812 -105.245117188 l 2
 225.08203125 -105.245117188 155.639648438 -105.245117188 122.440429688 -65.6796875 c 2
 80.6591796875 -15.88671875 l 2
 59.6748046875 9.12109375 53.1708984375 49.935546875 51.154296875 116.547851562 c 0
 50.33984375 143.446289062 50.2568359375 149.458984375 50.2490234375 150.400390625 c 2
 50.2490234375 150.547851562 l 2
 50.25390625 151.91015625 50.3271484375 162.95703125 51.4169921875 192.401367188 c 0
 54.03125 262.990234375 62.4560546875 303.22265625 89.78515625 326.154296875 c 2
 111.255859375 344.169921875 l 1
 75.0068359375 387.370117188 l 2
 55.705078125 410.373046875 54.0146484375 450.543945312 51.4169921875 520.694335938 c 2
 50 562.547851562 l 1
 50 686.696289062 l 1
 241.510742188 847.393554688 l 1
 283.291992188 797.600585938 l 1
 283.291992188 673.452148438 l 2
 286.328125 583.775390625 287.297851562 555.142578125 293.568359375 529.853515625 c 1x9580
 327.057617188 529.853515625 384.297851562 517.245117188 483.510742188 517.245117188 c 0x2180
283.541015625 261.404296875 m 0
 283.799804688 216.030273438 286.533203125 157.249023438 297.630859375 125.05859375 c 1x9180
 337.178710938 125.05859375 404.717773438 105.245117188 520.0625 105.245117188 c 2
 705.602539062 105.245117188 l 2
 737.655273438 105.245117188 766.015625 105.245117188 791.109375 105.669921875 c 0
 791.127929688 106.118164062 792.395507812 143.071289062 792.395507812 150.495117188 c 0
 792.291992188 185.25 790.403320312 251.850585938 778.3046875 286.94140625 c 1x6180
 738.7578125 286.94140625 671.217773438 306.754882812 555.873046875 306.754882812 c 2
 370.333007812 306.754882812 l 2x0980
 338.279296875 306.754882812 309.918945312 306.754882812 284.825195312 306.331054688 c 0x1180
 284.807617188 305.881835938 283.578125 273.686523438 283.541015625 261.404296875 c 0
EndSplineSet
Validated: 1
Ligature2: "'liga' Non-standard Ligatures lookup 0-2" O u
Ligature2: "'liga' Non-standard Ligatures lookup 0-2" O U
LCarets2: 1 0
EndChar

StartChar: Thorn
Encoding: 222 222 32
Width: 1080
Flags: W
HStem: -105.245 21G<74.9993 115.616> -105.245 21G<74.9993 115.616> 105.134 210.49<334.276 741.16> 427.039 210.49<334.276 797.188> 827.245 20G<217.677 258.294> 827.245 20G<217.677 258.294>
VStem: 50 233.293<55.4521 105.134 272.844 427.039 594.749 686.548>
AnchorPoint: "Attacha 2" 843 644 basechar 0
AnchorPoint: "Attacha 4 Cedilla" 537 0 basechar 0
AnchorPoint: "Anchora 3" 537 -200 basechar 0
AnchorPoint: "Anchora 1" 537 975 basechar 0
LayerCount: 2
Back
SplineSet
-1871.54199219 451.368164062 m 5
 -1871.54199219 248.005859375 l 5
 -1820.55859375 290.786132812 l 5
 -1357.64550781 290.786132812 l 5
 -1357.64550781 451.368164062 l 5
 -1871.54199219 451.368164062 l 5
-2104.83398438 779.465820312 m 5
 -1913.32324219 940.163085938 l 5
 -1871.54199219 890.370117188 l 5
 -1871.54199219 619.078125 l 5
 -1820.55859375 661.858398438 l 5
 -1166.13476562 661.858398438 l 5
 -1124.35351562 612.065429688 l 5
 -1124.35351562 240.993164062 l 5
 -1315.86425781 80.2958984375 l 5
 -1356.27734375 128.458007812 l 5
 -1413.67382812 80.2958984375 l 5
 -1871.54199219 80.2958984375 l 5
 -1871.54199219 -37.3173828125 l 5
 -2063.05273438 -198.014648438 l 5
 -2104.83398438 -148.221679688 l 5
 -2104.83398438 779.465820312 l 5
259.411132812 210.37890625 m 1
 816.025390625 210.37890625 l 1025
259.411132812 532.284179688 m 1
 913.834960938 532.284179688 l 1
 913.834960938 210.37890625 l 1025
166.646484375 742 m 1
 166.646484375 0 l 1025
-1894.59472656 185.541015625 m 5
 -1337.98046875 185.541015625 l 1029
-1894.59472656 556.61328125 m 5
 -1240.17089844 556.61328125 l 5
 -1240.17089844 185.541015625 l 1029
-1987.359375 834.91796875 m 5
 -1987.359375 -92.76953125 l 1029
EndSplineSet
Fore
SplineSet
50 686.547851562 m 1xba
 241.51171875 847.245117188 l 1
 283.29296875 797.452148438 l 1
 283.29296875 594.749023438 l 1
 334.276367188 637.529296875 l 1
 988.700195312 637.529296875 l 1
 1030.48144531 587.736328125 l 1
 1030.48144531 265.831054688 l 1
 838.969726562 105.133789062 l 1
 798.557617188 153.295898438 l 1
 741.16015625 105.133789062 l 1
 283.29296875 105.133789062 l 1
 283.29296875 55.4521484375 l 1
 91.78125 -105.245117188 l 1
 50 -55.4521484375 l 1
 50 686.547851562 l 1xba
283.29296875 427.0390625 m 1
 283.29296875 272.84375 l 1
 334.276367188 315.624023438 l 1
 797.188476562 315.624023438 l 1
 797.188476562 427.0390625 l 1
 283.29296875 427.0390625 l 1
EndSplineSet
Validated: 1
EndChar

StartChar: H
Encoding: 72 72 33
Width: 1075
Flags: W
HStem: -105.245 21G<74.9993 115.616 817.153 857.77> -105.245 21G<74.9993 115.616 817.153 857.77> 265.829 210.49<334.28 741.165> 827.392 20G<217.676 258.293 959.829 1000.45> 827.392 20G<217.676 258.293 959.829 1000.45>
VStem: 50 233.292<55.4521 265.829 433.535 686.694> 792.153 233.292<55.4521 308.613 476.319 686.694>
AnchorPoint: "Attacha 2" 843 644 basechar 0
AnchorPoint: "Attacha 4 Cedilla" 537 0 basechar 0
AnchorPoint: "Anchora 1" 537 975 basechar 0
AnchorPoint: "Anchora 3" 537 -200 basechar 0
LayerCount: 2
Back
SplineSet
911.298828125 742.146484375 m 1
 911.298828125 0 l 1025
261.915039062 371.07421875 m 1
 818.529296875 371.07421875 l 1025
169.145507812 742.146484375 m 1
 169.145507812 0 l 1025
EndSplineSet
Fore
SplineSet
50 686.694335938 m 1xb6
 241.510742188 847.391601562 l 1
 283.291992188 797.598632812 l 1
 283.291992188 433.53515625 l 1
 334.280273438 476.319335938 l 1
 792.153320312 476.319335938 l 1
 792.153320312 686.694335938 l 1
 983.6640625 847.391601562 l 1
 1025.4453125 797.598632812 l 1
 1025.4453125 55.4521484375 l 1
 833.934570312 -105.245117188 l 1
 792.153320312 -55.4521484375 l 1
 792.153320312 308.61328125 l 1
 741.165039062 265.829101562 l 1
 283.291992188 265.829101562 l 1
 283.291992188 55.4521484375 l 1
 91.78125 -105.245117188 l 1
 50 -55.4521484375 l 1
 50 686.694335938 l 1xb6
EndSplineSet
Validated: 1
EndChar

StartChar: I
Encoding: 73 73 34
Width: 1075
Flags: W
HStem: -105.245 210.49<241.511 419.931 602.006 833.928> 636.901 210.49<241.511 465.851 653.223 833.928>
VStem: 419.931 233.292<148.222 598.37>
AnchorPoint: "Attacha 2" 843 644 basechar 0
AnchorPoint: "Attacha 4 Cedilla" 537 0 basechar 0
AnchorPoint: "Anchora 1" 537 975 basechar 0
AnchorPoint: "Anchora 3" 537 -200 basechar 0
LayerCount: 2
Back
SplineSet
146.853515625 0 m 5
 889 0 l 1029
516.784179688 653.822265625 m 5
 516.784179688 92.76953125 l 1029
146.853515625 742.146484375 m 5
 889 742.146484375 l 1029
EndSplineSet
Fore
SplineSet
91.78125 636.901367188 m 1
 50 686.694335938 l 1
 241.510742188 847.391601562 l 1
 983.657226562 847.391601562 l 1
 1025.43847656 797.598632812 l 1
 833.927734375 636.901367188 l 1
 653.22265625 636.901367188 l 1
 653.22265625 148.221679688 l 1
 602.005859375 105.245117188 l 1
 983.657226562 105.245117188 l 1
 1025.43847656 55.4521484375 l 1
 833.927734375 -105.245117188 l 1
 91.78125 -105.245117188 l 1
 50 -55.4521484375 l 1
 241.510742188 105.245117188 l 1
 419.930664062 105.245117188 l 1
 419.930664062 598.370117188 l 1
 465.850585938 636.901367188 l 1
 91.78125 636.901367188 l 1
EndSplineSet
Validated: 1
EndChar

StartChar: J
Encoding: 74 74 35
Width: 1075
Flags: W
HStem: -105.245 21G<74.9993 393.924 446.072 486.688> -105.245 21G<74.9993 393.924 446.072 486.688> 636.901 210.49<241.511 472.281 654.364 833.934>
VStem: 421.072 233.292<105.245 593.932>
AnchorPoint: "Attacha 2" 843 644 basechar 0
AnchorPoint: "Attacha 4 Cedilla" 537 0 basechar 0
AnchorPoint: "Anchora 1" 537 975 basechar 0
AnchorPoint: "Anchora 3" 537 -200 basechar 0
LayerCount: 2
Back
SplineSet
507.521484375 649.383789062 m 5
 507.521484375 0 l 1029
136.44921875 185.540039062 m 5
 136.44921875 0 l 5
 414.7578125 0 l 1029
136.44921875 742.146484375 m 5
 878.6015625 742.146484375 l 1029
EndSplineSet
Fore
SplineSet
91.78125 636.901367188 m 1xb0
 50 686.694335938 l 1
 241.510742188 847.391601562 l 1
 983.663085938 847.391601562 l 1
 1025.44433594 797.598632812 l 1
 833.93359375 636.901367188 l 1
 654.364257812 636.901367188 l 1
 654.364257812 55.4521484375 l 1
 462.853515625 -105.245117188 l 1
 424.525390625 -59.5673828125 l 1
 370.08984375 -105.245117188 l 1
 91.78125 -105.245117188 l 1
 50 -55.4521484375 l 1
 50 130.087890625 l 1
 241.510742188 290.78515625 l 1
 283.291992188 240.9921875 l 1
 283.291992188 105.245117188 l 1
 421.072265625 105.245117188 l 1
 421.072265625 593.931640625 l 1
 472.28125 636.901367188 l 1
 91.78125 636.901367188 l 1xb0
EndSplineSet
Validated: 1
EndChar

StartChar: K
Encoding: 75 75 36
Width: 1075
UnlinkRmOvrlpSave: 1
Flags: W
HStem: -105.245 21G<74.9993 115.616 817.146 857.763> -105.245 21G<74.9993 115.616 817.146 857.763> 265.829 210.49<334.28 631.509> 827.392 20G<217.676 258.293> 827.392 20G<217.676 258.293>
VStem: 50 233.292<55.4521 265.829 433.535 686.694>
AnchorPoint: "Attacha 2" 843 644 basechar 0
AnchorPoint: "Attacha 4 Cedilla" 537 0 basechar 0
AnchorPoint: "Anchora 1" 537 975 basechar 0
AnchorPoint: "Anchora 3" 537 -200 basechar 0
LayerCount: 2
Back
SplineSet
779.376953125 742.146484375 m 5
 501.07421875 463.84375 l 1029
222.76953125 371.07421875 m 5
 686.61328125 371.07421875 l 5
 872.146484375 0 l 1029
130 742.146484375 m 5
 130 0 l 1029
EndSplineSet
Fore
SplineSet
50 686.694335938 m 1xb4
 241.510742188 847.391601562 l 1
 283.291992188 797.598632812 l 1
 283.291992188 433.53515625 l 1
 334.280273438 476.319335938 l 1
 798.124023438 476.319335938 l 1
 839.905273438 426.526367188 l 1
 1025.43847656 55.4521484375 l 1
 833.927734375 -105.245117188 l 1
 792.146484375 -55.4521484375 l 1
 631.508789062 265.829101562 l 1
 283.291992188 265.829101562 l 1
 283.291992188 55.4521484375 l 1
 91.78125 -105.245117188 l 1
 50 -55.4521484375 l 1
 50 686.694335938 l 1xb4
691.51953125 707.791992188 m 1
 908.026367188 832.791992188 l 1
 940.526367188 776.500976562 l 1
 662.223632812 498.198242188 l 1
 445.716796875 373.198242188 l 1
 413.216796875 429.489257812 l 1
 691.51953125 707.791992188 l 1
EndSplineSet
EndChar

StartChar: L
Encoding: 76 76 37
Width: 1075
Flags: W
HStem: -105.245 210.49<283.292 833.928> 827.392 20G<217.676 258.293> 827.392 20G<217.676 258.293>
VStem: 50 233.292<105.245 686.694>
AnchorPoint: "Attacha 2" 843 644 basechar 0
AnchorPoint: "Attacha 4 Cedilla" 537 0 basechar 0
AnchorPoint: "Anchora 1" 537 975 basechar 0
AnchorPoint: "Anchora 3" 537 -200 basechar 0
LayerCount: 2
Back
SplineSet
130.125 742.146484375 m 5
 130.125 0 l 5
 872.271484375 0 l 1029
EndSplineSet
Fore
SplineSet
50 686.694335938 m 1xd0
 241.510742188 847.391601562 l 1
 283.291992188 797.598632812 l 1
 283.291992188 105.245117188 l 1
 983.657226562 105.245117188 l 1
 1025.43847656 55.4521484375 l 1
 833.927734375 -105.245117188 l 1
 91.78125 -105.245117188 l 1
 50 -55.4521484375 l 1
 50 686.694335938 l 1xd0
EndSplineSet
Validated: 1
EndChar

StartChar: M
Encoding: 77 77 38
Width: 1075
Flags: W
HStem: -105.245 21G<74.9993 115.616 817.146 857.763> -105.245 21G<74.9993 115.616 817.146 857.763> 827.392 20G<217.676 258.293 959.822 1000.44> 827.392 20G<217.676 258.293 959.822 1000.44>
VStem: 50 233.292<55.4521 445.392> 792.146 233.292<55.4521 564.31 671.774 686.694>
AnchorPoint: "Attacha 2" 843 644 basechar 0
AnchorPoint: "Attacha 4 Cedilla" 537 0 basechar 0
AnchorPoint: "Anchora 1" 537 975 basechar 0
AnchorPoint: "Anchora 3" 537 -200 basechar 0
LayerCount: 2
Back
SplineSet
223.115234375 649.383789062 m 5
 501.42578125 371.07421875 l 5
 779.728515625 649.383789062 l 1029
872.498046875 742.146484375 m 5
 872.498046875 0 l 1029
130.3515625 742.146484375 m 5
 130.3515625 0 l 1029
EndSplineSet
Fore
SplineSet
50 686.694335938 m 1xac
 241.510742188 847.391601562 l 1
 283.291992188 797.598632812 l 1
 283.291992188 711.849609375 l 1
 334.274414062 754.62890625 l 1
 597.17578125 491.728515625 l 1
 699.376953125 593.931640625 l 1
 792.146484375 671.774414062 l 1
 792.146484375 686.694335938 l 1
 983.657226562 847.391601562 l 1
 1025.43847656 797.598632812 l 1
 1025.43847656 55.4521484375 l 1
 833.927734375 -105.245117188 l 1
 792.146484375 -55.4521484375 l 1
 792.146484375 564.309570312 l 1
 654.366210938 426.526367188 l 1
 462.85546875 265.829101562 l 1
 283.291992188 445.391601562 l 1
 283.291992188 55.4521484375 l 1
 91.78125 -105.245117188 l 1
 50 -55.4521484375 l 1
 50 686.694335938 l 1xac
EndSplineSet
Validated: 1
EndChar

StartChar: N
Encoding: 78 78 39
Width: 1075
Flags: W
HStem: -105.245 21G<74.9993 115.616 817.154 857.771> -105.245 21G<74.9993 115.616 817.154 857.771> 827.392 20G<217.676 258.293 959.83 1000.45> 827.392 20G<217.676 258.293 959.83 1000.45>
VStem: 50 233.292<55.4521 445.397> 792.154 233.292<296.756 686.694>
AnchorPoint: "Attacha 2" 843 644 basechar 0
AnchorPoint: "Attacha 4 Cedilla" 537 0 basechar 0
AnchorPoint: "Anchora 1" 537 975 basechar 0
AnchorPoint: "Anchora 3" 537 -200 basechar 0
LayerCount: 2
Back
SplineSet
873.7265625 742.146484375 m 5
 873.7265625 0 l 1029
224.341796875 649.383789062 m 5
 780.95703125 92.76953125 l 1029
131.572265625 742.146484375 m 5
 131.572265625 0 l 1029
EndSplineSet
Fore
SplineSet
50 686.694335938 m 1xac
 241.510742188 847.391601562 l 1
 283.291992188 797.598632812 l 1
 283.291992188 711.844726562 l 1
 334.280273438 754.62890625 l 1
 792.154296875 296.755859375 l 1
 792.154296875 686.694335938 l 1
 983.665039062 847.391601562 l 1
 1025.44628906 797.598632812 l 1
 1025.44628906 55.4521484375 l 1
 833.935546875 -105.245117188 l 1
 792.154296875 -55.4521484375 l 1
 792.154296875 30.30859375 l 1
 741.166015625 -12.4755859375 l 1
 283.291992188 445.397460938 l 1
 283.291992188 55.4521484375 l 1
 91.78125 -105.245117188 l 1
 50 -55.4521484375 l 1
 50 686.694335938 l 1xac
EndSplineSet
Validated: 1
EndChar

StartChar: O
Encoding: 79 79 40
Width: 1075
Flags: W
HStem: -105.245 210.49<301.707 781.24> 636.901 210.49<294.2 773.732>
VStem: 50 233.292<126.992 633.525> 792.147 233.292<108.621 615.154>
AnchorPoint: "Attacha 4 Cedilla" 537 0 basechar 0
AnchorPoint: "Anchora 1" 537 975 basechar 0
AnchorPoint: "Anchora 3" 537 -200 basechar 0
AnchorPoint: "Attacha 2" 843 644 basechar 0
LayerCount: 2
Back
SplineSet
134.248046875 463.84375 m 2
 134.248046875 742.146484375 134.248046875 742.146484375 412.551757812 742.146484375 c 2
 598.091796875 742.146484375 l 6
 876.395507812 742.146484375 876.395507812 742.146484375 876.395507812 463.84375 c 6
 876.395507812 278.302734375 l 6
 876.395507812 0 876.395507812 0 598.091796875 0 c 6
 412.551757812 0 l 2
 134.248046875 0 134.248046875 0 134.248046875 278.302734375 c 2
 134.248046875 463.84375 l 2
EndSplineSet
Fore
SplineSet
50 408.391601562 m 2
 50 553.641601562 50 623.083984375 89.5654296875 656.283203125 c 2
 281.076171875 816.98046875 l 2
 317.319335938 847.391601562 386.76171875 847.391601562 519.814453125 847.391601562 c 0
 705.354492188 847.391601562 705.354492188 847.391601562 705.354492188 847.391601562 c 2
 850.60546875 847.391601562 920.047851562 847.391601562 953.247070312 807.826171875 c 2
 995.028320312 758.033203125 l 2
 1025.43945312 721.790039062 1025.43945312 652.348632812 1025.43945312 519.295898438 c 2
 1025.43945312 333.754882812 l 2
 1025.43945312 188.504882812 1025.43945312 119.0625 985.874023438 85.86328125 c 2
 794.36328125 -74.833984375 l 2
 758.120117188 -105.245117188 688.677734375 -105.245117188 555.625 -105.245117188 c 2
 370.084960938 -105.245117188 l 2
 224.833984375 -105.245117188 155.391601562 -105.245117188 122.192382812 -65.6796875 c 0
 80.4111328125 -15.88671875 80.4111328125 -15.88671875 80.4111328125 -15.88671875 c 2
 50 20.3564453125 50 89.7978515625 50 222.850585938 c 2
 50 408.391601562 l 2
283.291992188 519.295898438 m 2
 283.291992188 333.754882812 l 2
 283.291992188 230.796875 297.3828125 165.928710938 297.3828125 125.05859375 c 1
 336.930664062 105.245117188 404.469726562 105.245117188 519.814453125 105.245117188 c 2
 705.354492188 105.245117188 l 2
 737.407226562 105.245117188 765.767578125 105.669921875 790.861328125 105.669921875 c 1
 792.147460938 137.8671875 792.147460938 176.499023438 792.147460938 222.850585938 c 2
 792.147460938 408.391601562 l 2
 792.147460938 511.349609375 778.056640625 576.217773438 778.056640625 617.087890625 c 1
 738.509765625 636.901367188 670.969726562 636.901367188 555.625 636.901367188 c 2
 370.084960938 636.901367188 l 2
 338.033203125 636.901367188 309.672851562 636.4765625 284.578125 636.4765625 c 1
 283.291992188 604.279296875 283.291992188 565.647460938 283.291992188 519.295898438 c 2
EndSplineSet
Validated: 1
EndChar

StartChar: P
Encoding: 80 80 41
Width: 1075
Flags: W
HStem: -105.245 21G<74.9993 115.616> -105.245 21G<74.9993 115.616> 173.058 210.49<334.28 741.164> 636.901 210.49<334.28 792.152> 827.392 20G<217.676 258.292>
VStem: 50 233.292<55.4521 173.058 340.764 636.901> 792.152 233.292<383.548 636.901>
AnchorPoint: "Attacha 2" 843 644 basechar 0
AnchorPoint: "Attacha 4 Cedilla" 537 0 basechar 0
AnchorPoint: "Anchora 1" 537 975 basechar 0
AnchorPoint: "Anchora 3" 537 -200 basechar 0
LayerCount: 2
Back
SplineSet
226.466796875 278.302734375 m 5
 783.080078125 278.302734375 l 1029
226.466796875 742.146484375 m 5
 875.849609375 742.146484375 l 5
 875.849609375 278.302734375 l 1029
133.697265625 742.146484375 m 5
 133.697265625 0 l 1029
EndSplineSet
Fore
SplineSet
50 686.694335938 m 1xae
 241.510742188 847.391601562 l 1xae
 279.840820312 801.7109375 l 1
 334.280273438 847.391601562 l 1x36
 983.663085938 847.391601562 l 1
 1025.44433594 797.598632812 l 1
 1025.44433594 333.754882812 l 1
 833.93359375 173.057617188 l 1
 795.603515625 218.73828125 l 1
 741.1640625 173.057617188 l 1
 283.291992188 173.057617188 l 1
 283.291992188 55.4521484375 l 1
 91.78125 -105.245117188 l 1
 50 -55.4521484375 l 1
 50 686.694335938 l 1xae
283.291992188 636.901367188 m 1x36
 283.291992188 340.763671875 l 1
 334.280273438 383.547851562 l 1
 792.15234375 383.547851562 l 1
 792.15234375 636.901367188 l 1
 283.291992188 636.901367188 l 1x36
EndSplineSet
Validated: 1
EndChar

StartChar: Q
Encoding: 81 81 42
Width: 1075
Flags: W
HStem: -12.4756 210.49<283.292 421.074 654.366 792.147> 636.901 210.49<334.28 792.147> 827.392 20G<217.676 258.292>
VStem: 50 233.292<198.015 636.901> 421.074 233.292<-37.3174 -12.4756 198.015 315.622> 792.147 233.292<240.992 636.901>
AnchorPoint: "Attacha 2" 843 644 basechar 0
AnchorPoint: "Attacha 4 Cedilla" 537 0 basechar 0
AnchorPoint: "Anchora 1" 537 975 basechar 0
AnchorPoint: "Anchora 3" 537 -200 basechar 0
LayerCount: 2
Back
SplineSet
501.998046875 371.07421875 m 5
 501.998046875 -92.76953125 l 1029
223.693359375 742.146484375 m 5
 873.071289062 742.146484375 l 5
 873.071289062 185.540039062 l 1029
130.923828125 742.146484375 m 5
 130.923828125 92.76953125 l 5
 873.071289062 92.76953125 l 1029
EndSplineSet
Fore
SplineSet
50 686.694335938 m 1xbc
 241.510742188 847.391601562 l 1xbc
 279.840820312 801.7109375 l 1
 334.280273438 847.391601562 l 1xdc
 983.658203125 847.391601562 l 1
 1025.43945312 797.598632812 l 1
 1025.43945312 240.9921875 l 1
 974.220703125 198.014648438 l 1
 983.658203125 198.014648438 l 1
 1025.43945312 148.221679688 l 1
 833.928710938 -12.4755859375 l 1
 654.366210938 -12.4755859375 l 1
 654.366210938 -37.3173828125 l 1
 462.85546875 -198.014648438 l 1
 421.07421875 -148.221679688 l 1
 421.07421875 -12.4755859375 l 1
 91.78125 -12.4755859375 l 1
 50 37.3173828125 l 1
 50 686.694335938 l 1xbc
421.07421875 315.622070312 m 1
 612.584960938 476.319335938 l 1
 654.366210938 426.526367188 l 1
 654.366210938 198.014648438 l 1
 792.147460938 198.014648438 l 1
 792.147460938 636.901367188 l 1
 283.291992188 636.901367188 l 1xdc
 283.291992188 198.014648438 l 1
 421.07421875 198.014648438 l 1
 421.07421875 315.622070312 l 1
EndSplineSet
Validated: 1
EndChar

StartChar: R
Encoding: 82 82 43
Width: 1075
Flags: W
HStem: -105.245 21G<74.9993 115.616 813.934 857.77> -105.245 21G<74.9993 115.616 813.934 857.77> 265.829 210.49<334.28 565.063> 636.901 210.49<334.28 792.153> 827.392 20G<217.676 258.292>
VStem: 50 233.292<55.4521 265.829 433.535 636.901> 792.153 233.292<476.319 636.901>
AnchorPoint: "Attacha 2" 843 644 basechar 0
AnchorPoint: "Attacha 4 Cedilla" 537 0 basechar 0
AnchorPoint: "Anchora 1" 537 975 basechar 0
AnchorPoint: "Anchora 3" 537 -200 basechar 0
LayerCount: 2
Back
SplineSet
596.989257812 278.302734375 m 5
 875.298828125 0 l 1029
225.915039062 371.07421875 m 5
 782.529296875 371.07421875 l 1029
225.915039062 742.146484375 m 5
 875.298828125 742.146484375 l 5
 875.298828125 371.07421875 l 1029
133.145507812 742.146484375 m 5
 133.145507812 0 l 1029
EndSplineSet
Fore
SplineSet
50 686.694335938 m 1xae
 241.510742188 847.391601562 l 1xae
 279.840820312 801.7109375 l 1
 334.280273438 847.391601562 l 1x36
 983.6640625 847.391601562 l 1
 1025.4453125 797.598632812 l 1
 1025.4453125 426.526367188 l 1
 833.934570312 265.829101562 l 1
 795.604492188 311.509765625 l 1
 785.703125 303.201171875 l 1
 983.6640625 105.245117188 l 1
 1025.4453125 55.4521484375 l 1
 833.934570312 -105.245117188 l 1
 555.625 173.057617188 l 1
 513.84375 222.850585938 l 1
 565.063476562 265.829101562 l 1
 283.291992188 265.829101562 l 1
 283.291992188 55.4521484375 l 1
 91.78125 -105.245117188 l 1
 50 -55.4521484375 l 1
 50 686.694335938 l 1xae
283.291992188 636.901367188 m 1x36
 283.291992188 433.53515625 l 1
 334.280273438 476.319335938 l 1
 792.153320312 476.319335938 l 1
 792.153320312 636.901367188 l 1
 283.291992188 636.901367188 l 1x36
EndSplineSet
Validated: 1
EndChar

StartChar: S
Encoding: 83 83 44
Width: 1075
Flags: W
HStem: -105.245 210.49<241.511 741.164> -105.245 21G<817.146 857.763> 265.829 210.49<283.292 792.146> 636.903 210.49<283.292 833.928>
VStem: 792.146 233.292<105.245 265.829>
AnchorPoint: "Attacha 2" 843 644 basechar 0
AnchorPoint: "Attacha 4 Cedilla" 537 0 basechar 0
AnchorPoint: "Anchora 1" 537 975 basechar 0
AnchorPoint: "Anchora 3" 537 -200 basechar 0
LayerCount: 2
Back
SplineSet
134 0 m 5
 783.3828125 0 l 1029
134 649.37890625 m 5
 134 371.07421875 l 5
 876.146484375 371.07421875 l 5
 876.146484375 0 l 1029
134 742.1484375 m 5
 876.146484375 742.1484375 l 1029
EndSplineSet
Fore
SplineSet
91.78125 636.903320312 m 1xb8
 50 686.696289062 l 1
 241.510742188 847.393554688 l 1
 983.657226562 847.393554688 l 1
 1025.43847656 797.600585938 l 1
 833.927734375 636.903320312 l 1
 283.291992188 636.903320312 l 1
 283.291992188 476.319335938 l 1
 983.657226562 476.319335938 l 1
 1025.43847656 426.526367188 l 1
 1025.43847656 55.4521484375 l 1
 833.927734375 -105.245117188 l 1x78
 795.599609375 -59.5673828125 l 1
 741.1640625 -105.245117188 l 1xb8
 91.78125 -105.245117188 l 1x78
 50 -55.4521484375 l 1
 241.510742188 105.245117188 l 1
 792.146484375 105.245117188 l 1
 792.146484375 265.829101562 l 1
 91.78125 265.829101562 l 1
 50 315.622070312 l 1
 50 593.926757812 l 1
 101.217773438 636.903320312 l 1
 91.78125 636.903320312 l 1xb8
EndSplineSet
Validated: 1
EndChar

StartChar: Esh
Encoding: 425 425 45
Width: 1075
Flags: W
HStem: -105.245 210.49<283.292 623.439> 636.903 210.49<451.996 792.148>
AnchorPoint: "Anchora 1" 537 975 basechar 0
AnchorPoint: "Attacha 2" 843 644 basechar 0
AnchorPoint: "Attacha 4 Cedilla" 537 0 basechar 0
AnchorPoint: "Anchora 3" 537 -200 basechar 0
LayerCount: 2
Back
SplineSet
96.2265625 278.3046875 m 5
 96.2265625 0 l 5
 838.375 0 l 1029
188.990234375 649.37890625 m 5
 745.60546875 92.7705078125 l 1029
96.2265625 742.1484375 m 5
 838.375 742.1484375 l 5
 838.375 463.84375 l 1029
EndSplineSet
Fore
SplineSet
184.544921875 544.133789062 m 1
 142.763671875 593.926757812 l 1
 193.981445312 636.903320312 l 1
 91.78125 636.903320312 l 1
 50 686.696289062 l 1
 241.510742188 847.393554688 l 1
 983.659179688 847.393554688 l 1
 1025.44042969 797.600585938 l 1
 1025.44042969 519.295898438 l 1
 833.9296875 358.598632812 l 1
 792.1484375 408.391601562 l 1
 792.1484375 636.903320312 l 1
 451.99609375 636.903320312 l 1
 890.889648438 198.015625 l 1
 932.670898438 148.22265625 l 1
 881.452148438 105.245117188 l 1
 983.659179688 105.245117188 l 1
 1025.44042969 55.4521484375 l 1
 833.9296875 -105.245117188 l 1
 91.78125 -105.245117188 l 1
 50 -55.4521484375 l 1
 50 222.852539062 l 1
 241.510742188 383.549804688 l 1
 283.291992188 333.756835938 l 1
 283.291992188 105.245117188 l 1
 623.439453125 105.245117188 l 1
 184.544921875 544.133789062 l 1
EndSplineSet
Validated: 1
EndChar

StartChar: T
Encoding: 84 84 46
Width: 1075
Flags: W
HStem: -105.245 21G<446.072 486.688> -105.245 21G<446.072 486.688> 636.903 210.49<241.511 472.29 654.364 833.934>
VStem: 421.072 233.292<55.4521 593.927>
AnchorPoint: "Attacha 2" 843 644 basechar 0
AnchorPoint: "Attacha 4 Cedilla" 527 80 basechar 0
AnchorPoint: "Anchora 1" 537 975 basechar 0
AnchorPoint: "Anchora 3" 537 -200 basechar 0
LayerCount: 2
Back
SplineSet
517.521484375 649.37890625 m 5
 517.521484375 0 l 1029
146.44921875 742.1484375 m 5
 888.6015625 742.1484375 l 1029
EndSplineSet
Fore
SplineSet
91.78125 636.903320312 m 1xb0
 50 686.696289062 l 1
 241.510742188 847.393554688 l 1
 983.663085938 847.393554688 l 1
 1025.44433594 797.600585938 l 1
 833.93359375 636.903320312 l 1
 654.364257812 636.903320312 l 1
 654.364257812 55.4521484375 l 1
 462.853515625 -105.245117188 l 1
 421.072265625 -55.4521484375 l 1
 421.072265625 593.926757812 l 1
 472.290039062 636.903320312 l 1
 91.78125 636.903320312 l 1xb0
EndSplineSet
Validated: 1
EndChar

StartChar: glyph50
Encoding: 1063 1063 47
Width: 1075
Flags: W
HStem: -105.245 21G<817.146 857.763> -105.245 21G<817.146 857.763> 173.06 210.49<283.292 741.158> 827.394 20G<217.676 258.293 959.822 1000.44> 827.394 20G<217.676 258.293 959.822 1000.44>
VStem: 50 233.292<383.55 686.696> 792.146 233.292<55.4521 215.844 383.55 686.696>
AnchorPoint: "Anchora 1" 537 975 basechar 0
AnchorPoint: "Attacha 4 Cedilla" 537 0 basechar 0
AnchorPoint: "Attacha 2" 843 644 basechar 0
AnchorPoint: "Anchora 3" 537 -200 basechar 0
LayerCount: 2
Back
SplineSet
836.822265625 742.1484375 m 5
 836.822265625 0 l 1029
94.67578125 742.1484375 m 5
 94.67578125 278.3046875 l 5
 744.052734375 278.3046875 l 1029
EndSplineSet
Fore
SplineSet
50 686.696289062 m 1xb6
 241.510742188 847.393554688 l 1
 283.291992188 797.600585938 l 1
 283.291992188 383.549804688 l 1
 792.146484375 383.549804688 l 1
 792.146484375 686.696289062 l 1
 983.657226562 847.393554688 l 1
 1025.43847656 797.600585938 l 1
 1025.43847656 55.4521484375 l 1
 833.927734375 -105.245117188 l 1
 792.146484375 -55.4521484375 l 1
 792.146484375 215.84375 l 1
 741.158203125 173.059570312 l 1
 91.78125 173.059570312 l 1
 50 222.852539062 l 1
 50 686.696289062 l 1xb6
EndSplineSet
Validated: 1
EndChar

StartChar: U
Encoding: 85 85 48
Width: 1075
Flags: W
HStem: -105.245 210.49<283.292 741.166> -105.245 21G<817.154 857.771> 827.394 20G<217.676 258.293 959.83 1000.45> 827.394 20G<217.676 258.293 959.83 1000.45>
VStem: 50 233.292<105.245 686.696> 792.154 233.292<105.245 686.696>
AnchorPoint: "Attacha 4 Cedilla" 537 0 basechar 0
AnchorPoint: "Anchora 1" 537 975 basechar 0
AnchorPoint: "Anchora 3" 537 -200 basechar 0
AnchorPoint: "Attacha 2" 843 644 basechar 0
LayerCount: 2
Back
SplineSet
915.05078125 742.1484375 m 5
 915.05078125 0 l 1029
172.896484375 742.1484375 m 5
 172.896484375 0 l 5
 822.28125 0 l 1029
EndSplineSet
Fore
SplineSet
50 686.696289062 m 1x4c
 241.510742188 847.393554688 l 1
 283.291992188 797.600585938 l 1
 283.291992188 105.245117188 l 1
 792.154296875 105.245117188 l 1xac
 792.154296875 686.696289062 l 1
 983.665039062 847.393554688 l 1
 1025.44628906 797.600585938 l 1
 1025.44628906 55.4521484375 l 1
 833.935546875 -105.245117188 l 1x6c
 795.60546875 -59.564453125 l 1
 741.166015625 -105.245117188 l 1x8c
 91.78125 -105.245117188 l 1
 50 -55.4521484375 l 1
 50 686.696289062 l 1x4c
EndSplineSet
Validated: 1
EndChar

StartChar: V
Encoding: 86 86 49
Width: 1075
Flags: W
HStem: -105.245 21G<813.928 857.763> -105.245 21G<813.928 857.763> 827.394 20G<217.676 261.511 959.822 1000.44> 827.394 20G<217.676 261.511 959.822 1000.44>
VStem: 792.146 233.292<296.757 686.696>
AnchorPoint: "Attacha 2" 843 644 basechar 0
AnchorPoint: "Attacha 4 Cedilla" 537 0 basechar 0
AnchorPoint: "Anchora 1" 537 975 basechar 0
AnchorPoint: "Anchora 3" 537 -200 basechar 0
LayerCount: 2
Back
SplineSet
889.498046875 742.1484375 m 5
 889.498046875 185.53515625 l 1029
147.3515625 742.1484375 m 5
 889.498046875 0 l 1029
EndSplineSet
Fore
SplineSet
91.78125 636.903320312 m 1xa8
 50 686.696289062 l 1
 241.510742188 847.393554688 l 1
 792.146484375 296.756835938 l 1
 792.146484375 686.696289062 l 1
 983.657226562 847.393554688 l 1
 1025.43847656 797.600585938 l 1
 1025.43847656 240.987304688 l 1
 928.911132812 159.991210938 l 1
 983.657226562 105.245117188 l 1
 1025.43847656 55.4521484375 l 1
 833.927734375 -105.245117188 l 1
 91.78125 636.903320312 l 1xa8
EndSplineSet
Validated: 1
EndChar

StartChar: W
Encoding: 87 87 50
Width: 1075
Flags: W
HStem: -105.245 210.49<283.292 370.092 654.366 741.166> -105.245 21G<817.154 857.771> 827.394 20G<217.676 258.293 959.83 1000.45> 827.394 20G<217.676 258.293 959.83 1000.45>
VStem: 50 233.292<105.245 686.696> 421.074 233.292<105.245 501.162> 792.154 233.292<105.245 686.696>
AnchorPoint: "Attacha 2" 843 644 basechar 0
AnchorPoint: "Attacha 4 Cedilla" 537 0 basechar 0
AnchorPoint: "Anchora 1" 537 975 basechar 0
AnchorPoint: "Anchora 3" 537 -200 basechar 0
LayerCount: 2
Back
SplineSet
908.080078125 742.1484375 m 1
 908.080078125 0 l 1025
537 556.614257812 m 1
 537 0 l 1
 815.310546875 0 l 1025
165.92578125 742.1484375 m 1
 165.92578125 0 l 1
 444.236328125 0 l 1025
EndSplineSet
Fore
SplineSet
50 686.696289062 m 1x4e
 241.510742188 847.393554688 l 1
 283.291992188 797.600585938 l 1
 283.291992188 105.245117188 l 1
 421.07421875 105.245117188 l 1
 421.07421875 501.162109375 l 1
 612.584960938 661.859375 l 1
 654.366210938 612.06640625 l 1
 654.366210938 105.245117188 l 1
 792.154296875 105.245117188 l 1xae
 792.154296875 686.696289062 l 1
 983.665039062 847.393554688 l 1
 1025.44628906 797.600585938 l 1
 1025.44628906 55.4521484375 l 1
 833.935546875 -105.245117188 l 1x6e
 795.60546875 -59.564453125 l 1
 741.166015625 -105.245117188 l 1x8e
 462.85546875 -105.245117188 l 1x4e
 424.52734375 -59.5673828125 l 1
 370.091796875 -105.245117188 l 1x8e
 91.78125 -105.245117188 l 1
 50 -55.4521484375 l 1
 50 686.696289062 l 1x4e
EndSplineSet
Validated: 1
EndChar

StartChar: X
Encoding: 88 88 51
Width: 1075
Flags: W
HStem: -105.245 21G<74.9993 115.616 817.152 857.769> -105.245 21G<74.9993 115.616 817.152 857.769> 265.829 210.49<283.292 371.283 493.671 581.773 704.162 792.152> 827.394 20G<217.676 258.293 959.828 1000.45> 827.394 20G<217.676 258.293 959.828 1000.45>
VStem: 50 233.292<476.319 686.696> 792.152 233.292<55.4521 265.829>
AnchorPoint: "Attacha 2" 843 644 basechar 0
AnchorPoint: "Attacha 4 Cedilla" 537 0 basechar 0
AnchorPoint: "Anchora 1" 537 975 basechar 0
AnchorPoint: "Anchora 3" 537 -200 basechar 0
LayerCount: 2
Back
SplineSet
907.173828125 742.1484375 m 5
 165.021484375 0 l 1029
165.021484375 742.1484375 m 5
 165.021484375 371.07421875 l 5
 907.173828125 371.07421875 l 5
 907.173828125 0 l 1029
EndSplineSet
Fore
SplineSet
792.15234375 686.696289062 m 1xb6
 983.663085938 847.393554688 l 1
 1025.44433594 797.600585938 l 1
 704.162109375 476.319335938 l 1
 983.663085938 476.319335938 l 1
 1025.44433594 426.526367188 l 1
 1025.44433594 55.4521484375 l 1
 833.93359375 -105.245117188 l 1
 792.15234375 -55.4521484375 l 1
 792.15234375 265.829101562 l 1
 493.670898438 265.829101562 l 1
 283.291992188 55.4521484375 l 1
 91.78125 -105.245117188 l 1
 50 -55.4521484375 l 1
 371.283203125 265.829101562 l 1
 91.78125 265.829101562 l 1
 50 315.622070312 l 1
 50 686.696289062 l 1
 241.510742188 847.393554688 l 1
 283.291992188 797.600585938 l 1
 283.291992188 476.319335938 l 1
 581.7734375 476.319335938 l 1
 792.15234375 686.696289062 l 1xb6
EndSplineSet
Validated: 1
EndChar

StartChar: Y
Encoding: 89 89 52
Width: 1075
UnlinkRmOvrlpSave: 1
Flags: W
HStem: -105.245 21G<74.9993 115.616> -105.245 21G<74.9993 115.616> 827.394 20G<217.677 258.294 959.829 1000.45> 827.394 20G<217.677 258.294 959.829 1000.45>
VStem: 50 233.293<476.319 686.696>
AnchorPoint: "Attacha 2" 843 644 basechar 0
AnchorPoint: "Attacha 4 Cedilla" 537 0 basechar 0
AnchorPoint: "Anchora 1" 537 975 basechar 0
AnchorPoint: "Anchora 3" 537 -200 basechar 0
LayerCount: 2
Back
SplineSet
908.798828125 742.1484375 m 5
 166.646484375 0 l 1029
166.646484375 742.1484375 m 1
 166.646484375 371.07421875 l 1
 536.625 371.07421875 l 1025
EndSplineSet
Fore
SplineSet
283.29296875 476.319335938 m 1x28
 611.490234375 476.319335938 l 1
 653.271484375 426.526367188 l 1
 461.759765625 265.829101562 l 1
 91.78125 265.829101562 l 1
 50 315.622070312 l 1
 50 686.696289062 l 1
 241.51171875 847.393554688 l 1
 283.29296875 797.600585938 l 1
 283.29296875 476.319335938 l 1x28
792.15234375 686.696289062 m 1
 983.6640625 847.393554688 l 1
 1025.4453125 797.600585938 l 1
 283.29296875 55.4521484375 l 1
 91.78125 -105.245117188 l 1xa8
 50 -55.4521484375 l 1
 792.15234375 686.696289062 l 1
EndSplineSet
EndChar

StartChar: Z
Encoding: 90 90 53
Width: 1075
Flags: W
HStem: -105.245 210.49<333.086 833.934> 636.903 210.49<241.511 742.359>
AnchorPoint: "Attacha 2" 843 644 basechar 0
AnchorPoint: "Attacha 4 Cedilla" 537 0 basechar 0
AnchorPoint: "Anchora 3" 537 -200 basechar 0
AnchorPoint: "Anchora 1" 537 975 basechar 0
LayerCount: 2
Back
SplineSet
142.697265625 742.1484375 m 5
 884.849609375 742.1484375 l 5
 142.697265625 0 l 5
 884.849609375 0 l 1029
EndSplineSet
Fore
SplineSet
333.0859375 105.245117188 m 1
 983.663085938 105.245117188 l 1
 1025.44433594 55.4521484375 l 1
 833.93359375 -105.245117188 l 1
 91.78125 -105.245117188 l 1
 50 -55.4521484375 l 1
 742.359375 636.903320312 l 1
 91.78125 636.903320312 l 1
 50 686.696289062 l 1
 241.510742188 847.393554688 l 1
 983.663085938 847.393554688 l 1
 1025.44433594 797.600585938 l 1
 333.0859375 105.245117188 l 1
EndSplineSet
Validated: 1
EndChar

StartChar: uni0232
Encoding: 562 562 54
Width: 1075
UnlinkRmOvrlpSave: 1
HStem: -105.245 21G<74.9993 115.616 74.9993 115.616> 827.394 20G<217.677 258.294 217.677 258.294 959.829 1000.45 959.829 1000.45> 926.942 100.115<283.706 767.679>
VStem: 50 233.293<476.319 686.696>
AnchorPoint: "Anchora 1" 537 1123 basechar 0
AnchorPoint: "Attacha 2" 843 644 basechar 0
AnchorPoint: "Attacha 4 Cedilla" 537 0 basechar 0
AnchorPoint: "Anchora 3" 537 -200 basechar 0
LayerCount: 2
Back
SplineSet
836.403320312 649.37890625 m 5
 94.2548828125 0 l 1029
94.2548828125 649.37890625 m 5
 372.559570312 405.864257812 l 1029
187.01953125 834.91796875 m 5
 743.633789062 834.91796875 l 1029
EndSplineSet
Fore
Refer: 86 772 N 1 0 0 1 1065 1 2
Refer: 52 89 N 1 0 0 1 0 0 3
EndChar

StartChar: Wmacron
Encoding: 1114112 -1 84
Width: 1075
Flags: W
HStem: -105.245 21G<817.154 857.771> -105.245 210.49<283.292 370.092 654.366 741.166> 827.394 20G<217.676 258.293 217.676 258.293 959.83 1000.45 959.83 1000.45> 925.942 100.115<320.706 804.679>
VStem: 50 233.292<105.245 686.696> 421.074 233.292<105.245 501.162> 792.154 233.292<105.245 686.696>
AnchorPoint: "Anchora 1" 543 1103 basechar 0
LayerCount: 2
Back
SplineSet
847.708984375 649.37890625 m 1
 847.708984375 0 l 1025
476.634765625 463.84375 m 1
 476.634765625 0 l 1
 754.939453125 0 l 1025
105.5625 649.37890625 m 1
 105.5625 0 l 1
 383.865234375 0 l 1025
198.33203125 834.91796875 m 1
 754.939453125 834.91796875 l 1025
EndSplineSet
Fore
Refer: 86 772 N 1 0 0 1 1102 0 2
Refer: 50 87 N 1 0 0 1 -1.75e-06 0 2
Validated: 1
Ligature2: "'liga' Standard Ligatures lookup 0-1" W uni0304
LCarets2: 1 0
EndChar

StartChar: uni0304
Encoding: 772 772 86
Width: 0
GlyphClass: 4
Flags: W
HStem: 925.942 100.115<-781.294 -297.321>
AnchorPoint: "Anchora 1" -537 974 mark 0
LayerCount: 2
Back
SplineSet
-802.615234375 976 m 1
 -246 976 l 1025
EndSplineSet
Fore
SplineSet
-853.936523438 925.942382812 m 1
 -873.219726562 948.923828125 l 1
 -781.293945312 1026.05761719 l 1
 -224.678710938 1026.05761719 l 1
 -205.395507812 1003.07617188 l 1
 -297.321289062 925.942382812 l 1
 -853.936523438 925.942382812 l 1
EndSplineSet
Validated: 1
EndChar

StartChar: uniA74E
Encoding: 42830 42830 93
Width: 1075
InSpiro: 1
Flags: W
HStem: -105.245 210.49<283.856 421.006 721.511 792> 636.755 210.49<283.292 369.781 676.511 791.436>
VStem: 50 233.292<106.384 636.611> 421.006 233.292<105.245 621.136> 792 233.292<105.245 635.628>
AnchorPoint: "Anchora 1" 543 975 basechar 0
LayerCount: 2
Back
SplineSet
474.646484375 742 m 4
 231.646484375 741.645507812 l 4
 166.646484375 741.645507812 166.646484375 741.645507812 166.646484375 613 c 4
 166.646484375 613 166.646484375 276.202148438 166.646484375 61 c 7
 166.646484375 0.2021484375 166.646484375 0 231.646484375 0 c 4
 322.646484375 0 l 5
 474.646484375 0 l 4
 536.842773438 0 537.65234375 1 537.65234375 132 c 7
 537.65234375 132.635742188 537.65234375 363 537.65234375 612 c 7
 537.65234375 612.609375 537.65234375 613.390625 537.65234375 614 c 4
 537.65234375 680.284179688 538.736328125 742 601.646484375 742 c 4
 763.646484375 742 l 5
 808.640625 742 l 5
 843.646484375 742.01171875 l 7
 908.646484375 742.01171875 908.646484375 741.809570312 908.646484375 681.01171875 c 7
 908.646484375 465.809570312 908.646484375 129.01171875 908.646484375 129.01171875 c 7
 908.646484375 0.3662109375 908.646484375 0.3662109375 843.646484375 0.3662109375 c 4
 808.646484375 0 l 5
 613.646484375 0 l 1031
EndSplineSet
Fore
SplineSet
421.005859375 558.547851562 m 1
 423.609375 621.135742188 l 1
 440.477539062 668.126953125 l 1
 631.98828125 828.82421875 l 1
 676.510742188 847.245117188 l 1
 883.504882812 847.245117188 l 1
 918.510742188 847.256835938 l 1
 964.22265625 844.958984375 l 1
 981.111328125 829.065429688 l 1
 1022.89257812 779.272460938 l 1
 1025.29199219 736.463867188 l 1
 1025.29199219 184.463867188 l 1
 1022.89257812 93.9921875 l 1
 1006.00390625 60.568359375 l 1
 814.493164062 -100.127929688 l 1
 768.78125 -104.87890625 l 1
 733.78125 -105.245117188 l 1
 571.78125 -105.245117188 l 1
 530 -55.4521484375 l 1
 721.510742188 105.245117188 l 1
 792 105.245117188 l 1
 792 625.559570312 l 1
 791.435546875 635.627929688 l 1
 768.78125 636.766601562 l 1
 733.775390625 636.754882812 l 1
 654.297851562 636.754882812 l 1
 654.297851562 187.452148438 l 1
 651.791992188 95.06640625 l 1
 635.2421875 60.5478515625 l 1
 443.73046875 -100.1484375 l 1
 399.78125 -105.245117188 l 1
 156.78125 -105.245117188 l 1
 111.069335938 -102.947265625 l 1
 94.181640625 -87.0537109375 l 1
 52.400390625 -37.2607421875 l 1
 50 5.5478515625 l 1
 50 557.547851562 l 1
 52.400390625 648.01953125 l 1
 69.2880859375 681.443359375 l 1
 260.798828125 842.139648438 l 1
 306.510742188 846.890625 l 1
 519.510742188 847.245117188 l 1
 561.291992188 797.452148438 l 1
 369.78125 636.754882812 l 1
 283.291992188 636.611328125 l 1
 283.291992188 116.452148438 l 1
 283.856445312 106.383789062 l 1
 306.510742188 105.245117188 l 1
 421.005859375 105.245117188 l 1
 421.005859375 558.547851562 l 1
  Spiro
    421.006 558.548 v
    423.609 621.136 v
    440.477 668.127 v
    631.988 828.824 v
    676.511 847.245 v
    883.505 847.245 v
    918.511 847.257 v
    964.223 844.959 v
    981.111 829.066 v
    1022.89 779.273 v
    1025.29 736.464 v
    1025.29 184.464 v
    1022.89 93.9926 v
    1006 60.5686 v
    814.493 -100.128 v
    768.781 -104.879 v
    733.781 -105.245 v
    571.781 -105.245 v
    530 -55.452 v
    721.511 105.245 v
    792 105.245 v
    792 625.56 v
    791.435 635.628 v
    768.781 636.767 v
    733.775 636.755 v
    654.298 636.755 v
    654.298 187.452 v
    651.792 95.0663 v
    635.242 60.5481 v
    443.731 -100.149 v
    399.781 -105.245 v
    156.781 -105.245 v
    111.069 -102.948 v
    94.1814 -87.0539 v
    52.4002 -37.261 v
    50 5.54799 v
    50 557.548 v
    52.4002 648.019 v
    69.2882 681.443 v
    260.799 842.14 v
    306.511 846.89 v
    519.511 847.245 v
    561.292 797.452 v
    369.781 636.755 v
    283.292 636.611 v
    283.292 116.452 v
    283.857 106.383 v
    306.511 105.245 v
    421.006 105.245 v
    0 0 z
  EndSpiro
EndSplineSet
Validated: 1
Ligature2: "'liga' Non-standard Ligatures lookup 0-2" O O
Ligature2: "'liga' Non-standard Ligatures lookup 0-2" O o
LCarets2: 1 0
EndChar

StartChar: uni0307
Encoding: 775 775 95
Width: 0
Flags: W
HStem: 925.942 100.115<-561.857 -508.225>
VStem: -653.783 237.484
AnchorPoint: "Anchora 1" -537.009 972.348 mark 0
LayerCount: 2
Back
SplineSet
-514.169921875 976 m 5
 -427.89453125 976 l 1029
EndSplineSet
Fore
SplineSet
-634.5 925.942382812 m 1
 -653.783203125 948.923828125 l 1
 -561.857421875 1026.05761719 l 1
 -435.58203125 1026.05761719 l 1
 -416.298828125 1003.07617188 l 1
 -508.224609375 925.942382812 l 1
 -634.5 925.942382812 l 1
EndSplineSet
Validated: 1
EndChar

StartChar: uni030A
Encoding: 778 778 96
Width: 0
Flags: W
HStem: 895.942 100.115<-578.424 -489.181> 1088.38 100.115<-573.239 -484.048>
AnchorPoint: "Anchora 1" -537 975.348 mark 0
LayerCount: 2
Back
SplineSet
-600.216796875 1127.015625 m 4
 -566.4453125 1163.33691406 -527.278320312 1168.32421875 -502.087890625 1168.32421875 c 7
 -491.426757812 1168.32421875 -501.578125 1168.43457031 -487.3046875 1168.43457031 c 7
 -421.1640625 1168.43457031 -391.627929688 1126.08105469 -385.48046875 1109.17480469 c 4
 -380.383789062 1095.15625 -377.197265625 1081.77441406 -380.383789062 1064.57128906 c 1028
-389.94140625 1029.52539062 m 4
 -417.977539062 983.646484375 -472.01953125 976.109375 -496.991210938 976.109375 c 7
 -507.65234375 976.109375 -497.500976562 976 -511.774414062 976 c 7
 -569.560546875 976 -613.598632812 1009.77148438 -619.333007812 1063.93359375 c 4
 -621.75390625 1086.79980469 -618.05859375 1094.51953125 -616.78515625 1098.97949219 c 1037
EndSplineSet
Fore
SplineSet
-497.766601562 1188.38183594 m 0
 -497.619140625 1188.38183594 -486.744140625 1188.4921875 -482.983398438 1188.4921875 c 0
 -437.401367188 1188.4921875 -409.204101562 1168.37597656 -394.067382812 1150.33691406 c 0
 -367.114257812 1118.21484375 -365.546875 1116.34765625 -361.875976562 1106.25097656 c 0
 -358.190429688 1096.11328125 -355.50390625 1086.30859375 -355.50390625 1075.15136719 c 0
 -355.50390625 1070.87988281 -355.897460938 1066.41015625 -356.779296875 1061.64746094 c 2
 -379.64453125 1042.46191406 l 1
 -366.336914062 1026.6015625 l 1
 -372.37890625 1016.71484375 -379.627929688 1008.60839844 -387.534179688 1001.97460938 c 2
 -479.459960938 924.83984375 l 2
 -508.240234375 900.690429688 -545.721679688 896.051757812 -565.3125 896.051757812 c 0
 -565.459960938 896.051757812 -576.334960938 895.942382812 -580.095703125 895.942382812 c 0
 -616.196289062 895.942382812 -646.930664062 909.123046875 -666.313476562 932.221679688 c 2
 -685.596679688 955.203125 l 2
 -690.42578125 960.95703125 -707.7421875 981.942382812 -707.7421875 1020.72949219 c 0
 -707.7421875 1030.16308594 -707.208007812 1032.03222656 -704.389648438 1041.90332031 c 1
 -680.862304688 1061.64550781 l 1
 -687.821289062 1069.93945312 l 1
 -683.774414062 1074.29199219 -679.649414062 1078.19433594 -675.48046875 1081.69335938 c 2
 -583.5546875 1158.82714844 l 2
 -552.9375 1184.51855469 -519.938476562 1188.38183594 -497.766601562 1188.38183594 c 0
-595.73046875 1086.30761719 m 0
 -596.3671875 1083.05175781 -596.533203125 1080.14355469 -596.533203125 1074.8828125 c 0
 -596.533203125 1059.28613281 -593.713867188 1039.75292969 -583.045898438 1021.61523438 c 1
 -563.879882812 1005.20605469 -537.529296875 996.057617188 -507.453125 996.057617188 c 0
 -503.693359375 996.057617188 -492.818359375 996.166992188 -492.669921875 996.166992188 c 0
 -484.624023438 996.166992188 -473.55859375 996.950195312 -461.318359375 999.545898438 c 1
 -467.98828125 1007.49511719 l 2
 -467.106445312 1012.25683594 -466.712890625 1016.7265625 -466.712890625 1020.99804688 c 0
 -466.712890625 1035.35351562 -471.8671875 1051.60351562 -477.465820312 1061.1796875 c 0
 -493.89453125 1075.54003906 -519.212890625 1088.37695312 -555.625976562 1088.37695312 c 0
 -559.385742188 1088.37695312 -570.260742188 1088.26660156 -570.409179688 1088.26660156 c 0
 -577.807617188 1088.26660156 -586.412109375 1087.8359375 -595.73046875 1086.30761719 c 0
EndSplineSet
Validated: 1
EndChar

StartChar: uni0306
Encoding: 774 774 97
Width: 0
Flags: W
HStem: 895.942 100.115<-603.202 -462.553>
AnchorPoint: "Anchora 1" -537.018 972.348 mark 0
LayerCount: 2
Back
SplineSet
-307.534179688 1128.15917969 m 7
 -307.534179688 1038 -389.799804688 976.172851562 -493 976.172851562 c 7
 -509.732421875 976.172851562 -493.799804688 976 -516.200195312 976 c 7
 -606.889648438 976 -682.471679688 1034 -682.471679688 1106.47949219 c 1028
EndSplineSet
Fore
SplineSet
-561.338867188 896.115234375 m 0
 -561.5703125 896.115234375 -578.638671875 895.942382812 -584.5390625 895.942382812 c 0
 -642.146484375 895.942382812 -693.658203125 919.345703125 -723.57421875 954.997070312 c 2
 -742.857421875 977.978515625 l 2
 -760.036132812 998.452148438 -770.09375 1022.96386719 -770.09375 1049.40332031 c 1
 -678.16796875 1126.53710938 l 1
 -658.884765625 1103.55566406 l 1
 -658.884765625 1082.05371094 -652.232421875 1061.82519531 -640.506835938 1044.0078125 c 1
 -609.823242188 1014.68066406 -563.28515625 996.057617188 -511.896484375 996.057617188 c 0
 -505.997070312 996.057617188 -488.928710938 996.23046875 -488.696289062 996.23046875 c 0
 -460.272460938 996.23046875 -433.436523438 1000.92089844 -409.470703125 1009.6015625 c 1
 -400.2421875 1028 -395.15625 1048.66601562 -395.15625 1071.08300781 c 1
 -303.23046875 1148.21679688 l 1
 -283.947265625 1125.23535156 l 1
 -283.947265625 1081.53613281 -303.2734375 1044.49316406 -334.942382812 1017.91894531 c 2
 -426.868164062 940.78515625 l 2
 -460.538085938 912.532226562 -508.158203125 896.115234375 -561.338867188 896.115234375 c 0
EndSplineSet
Validated: 1
EndChar

StartChar: uni0302
Encoding: 770 770 98
Width: 0
Flags: W
HStem: 908.942 170.115
AnchorPoint: "Anchora 1" -537.009 972.348 mark 0
LayerCount: 2
Back
SplineSet
-692 987 m 1
 -692 987 -581 1012 -470 1059 c 1
 -456 1004 -310 989 -310 989 c 1025
EndSplineSet
Fore
SplineSet
-444.936523438 1051.58300781 m 0
 -400.924804688 1018.84277344 -305.6875 1009.05761719 -305.6875 1009.05761719 c 1
 -286.404296875 986.076171875 l 1
 -378.330078125 908.942382812 l 1
 -378.330078125 908.942382812 -494.618164062 920.889648438 -529.580078125 962.555664062 c 2
 -542.0234375 977.385742188 l 1
 -651.779296875 931.390625 -760.330078125 906.942382812 -760.330078125 906.942382812 c 1
 -779.61328125 929.923828125 l 1
 -687.6875 1007.05761719 l 1
 -687.6875 1007.05761719 -576.6875 1032.05761719 -465.6875 1079.05761719 c 1
 -446.404296875 1056.07617188 l 2
 -446.015625 1054.54785156 -445.524414062 1053.04980469 -444.936523438 1051.58300781 c 0
EndSplineSet
Validated: 1
EndChar

StartChar: acutecomb
Encoding: 769 769 100
Width: 0
Flags: W
HStem: 925.942 100.115<-649.849 -610.293>
AnchorPoint: "Anchora 1" -537 972.348 mark 0
LayerCount: 2
Back
SplineSet
-666.169921875 976 m 1
 -566 986.380779958 -418 1033.16076664 -350 1072 c 1024
EndSplineSet
Fore
SplineSet
-722.491210938 925.942382812 m 1
 -741.774414062 948.923828125 l 1
 -649.848632812 1026.05761719 l 1
 -549.678710938 1036.43847656 -401.678710938 1083.21875 -333.678710938 1122.05761719 c 1
 -314.395507812 1099.07617188 l 1
 -406.321289062 1021.94238281 l 1
 -474.321289062 983.103515625 -622.321289062 936.323242188 -722.491210938 925.942382812 c 1
EndSplineSet
Validated: 1
EndChar

StartChar: gravecomb
Encoding: 768 768 101
Width: 0
Flags: HW
HStem: 991.942 100.115<-654.021 -599.677>
AnchorPoint: "Anchora 1" -537 972.348 mark 0
LayerCount: 2
Back
SplineSet
-702.491210938 925.942382812 m 1
 -721.774414062 948.923828125 l 1
 -629.848632812 1026.05761719 l 1
 -529.678710938 1036.43839715 -381.678710938 1083.21838383 -313.678710938 1122.05761719 c 1
 -294.395507812 1099.07617188 l 1
 -386.321289062 1021.94238281 l 1
 -454.321289062 983.103149454 -602.321289062 936.323162771 -702.491210938 925.942382812 c 1
-345.830078125 976 m 5
 -446 986.380859375 -594 1033.16113281 -662 1072 c 1028
EndSplineSet
Fore
SplineSet
-329.508789062 996.057617188 m 1
 -310.225585938 973.076171875 l 1
 -402.151367188 895.942382812 l 1
 -420.358398438 910.193359375 -494.512695312 960.459960938 -718.321289062 991.942382812 c 1
 -737.604492188 1014.92382812 l 1
 -645.678710938 1092.05761719 l 1
 -421.87109375 1060.57617188 -347.716796875 1010.30859375 -329.508789062 996.057617188 c 1
EndSplineSet
EndChar

StartChar: tildecomb
Encoding: 771 771 102
Width: 0
Flags: W
HStem: 899.942 100.135<-437.51 -370.364> 1055.92 100.139<-704.626 -660.854>
AnchorPoint: "Anchora 1" -537 972.348 mark 0
LayerCount: 2
Back
SplineSet
-650 950 m 0
 -762 950 -765 1106 -644 1106 c 0
 -570 1106 -487 950 -366 950 c 0
 -247.983398438 950 -245 1106 -366 1106 c 1024
EndSplineSet
Fore
SplineSet
-639.678710938 1156.05761719 m 0
 -566.15234375 1156.05761719 -483.734375 1002.03808594 -363.986328125 1000.07714844 c 0
 -363.975585938 1000.60253906 -363.969726562 1001.12792969 -363.969726562 1001.65332031 c 0
 -363.969726562 1013.82226562 -366.87890625 1025.96679688 -372.732421875 1036.90234375 c 1
 -387.420898438 1048.515625 -407.919921875 1055.94238281 -434.321289062 1055.94238281 c 1
 -453.604492188 1078.92382812 l 1
 -361.678710938 1156.05761719 l 1
 -327.970703125 1156.05761719 -303.883789062 1143.95117188 -289.2265625 1126.48242188 c 2
 -269.942382812 1103.50097656 l 2
 -258.45703125 1089.81347656 -252.760742188 1072.83300781 -252.760742188 1055.80664062 c 0
 -252.760742188 1034.28515625 -261.861328125 1012.69042969 -279.875 997.575195312 c 2
 -371.80078125 920.440429688 l 2
 -386.6328125 907.994140625 -407.5078125 899.942382812 -434.321289062 899.942382812 c 0
 -554.469726562 899.942382812 -637.151367188 1053.75488281 -710.7578125 1055.91894531 c 1
 -710.768554688 1055.38671875 -710.774414062 1054.85546875 -710.774414062 1054.32324219 c 0
 -710.774414062 1041.67285156 -707.7109375 1029.04882812 -701.647460938 1017.78222656 c 1
 -687.883789062 1006.92675781 -669.180664062 1000.05761719 -645.678710938 1000.05761719 c 1
 -626.395507812 977.076171875 l 1
 -718.321289062 899.942382812 l 1
 -748.705078125 899.942382812 -771.067382812 911.422851562 -785.107421875 928.15625 c 2
 -804.391601562 951.137695312 l 2
 -816.061523438 965.045898438 -821.983398438 982.58203125 -821.983398438 1000.16992188 c 0
 -821.983398438 1021.67382812 -813.131835938 1043.25292969 -795.114257812 1058.37109375 c 2
 -703.189453125 1135.50585938 l 2
 -688.3203125 1147.98242188 -667.208984375 1156.05761719 -639.678710938 1156.05761719 c 0
EndSplineSet
Validated: 1
EndChar

StartChar: uni030C
Encoding: 780 780 103
Width: 0
Flags: W
HStem: 930.942 198.116
AnchorPoint: "Anchora 1" -537.122 1007.45 mark 0
LayerCount: 2
Back
SplineSet
-324 1049 m 5
 -324 1049 -465 1019 -493 951 c 5
 -511 1001 -706 1049 -706 1049 c 1029
EndSplineSet
Fore
SplineSet
-321.478515625 1129.05859375 m 1
 -302.194335938 1106.07714844 l 1
 -394.120117188 1028.94238281 l 1
 -394.120117188 1028.94238281 -437.556640625 1019.70019531 -481.000976562 999.848632812 c 1
 -563.120117188 930.942382812 l 1
 -581.466796875 952.806640625 l 1
 -634.443359375 994.068359375 -776.120117188 1028.94238281 -776.120117188 1028.94238281 c 1
 -795.403320312 1051.92382812 l 1
 -703.478515625 1129.05859375 l 1
 -703.478515625 1129.05859375 -535.493164062 1087.70800781 -496.961914062 1041.78808594 c 2
 -495.171875 1039.65429688 l 1
 -461.911132812 1067.56347656 l 2
 -411.43359375 1109.91894531 -321.478515625 1129.05859375 -321.478515625 1129.05859375 c 1
EndSplineSet
Validated: 1
EndChar

StartChar: Tbar
Encoding: 358 358 155
Width: 1075
Flags: W
HStem: -105.245 21G<446.072 486.688> -105.245 21G<446.072 486.688> 347.755 210.49<241.511 421.072 654.364 833.934> 636.903 210.49<241.511 472.29 654.364 833.934>
VStem: 421.072 233.292<55.4521 347.755 558.245 593.927>
AnchorPoint: "Attacha 2" 843 644 basechar 0
AnchorPoint: "Anchora 1" 537 975 basechar 0
AnchorPoint: "Attacha 4 Cedilla" 527 80 basechar 0
AnchorPoint: "Anchora 3" 537 -200 basechar 0
LayerCount: 2
Back
SplineSet
166.646484375 453 m 5
 908.798828125 453 l 1029
537.71875 649.37890625 m 5
 537.71875 0 l 1029
166.646484375 742.1484375 m 5
 908.798828125 742.1484375 l 1029
EndSplineSet
Fore
SplineSet
654.364257812 636.903320312 m 1xb8
 654.364257812 558.245117188 l 1
 983.663085938 558.245117188 l 1
 1025.44433594 508.452148438 l 1
 833.93359375 347.754882812 l 1
 654.364257812 347.754882812 l 1
 654.364257812 55.4521484375 l 1
 462.853515625 -105.245117188 l 1
 421.072265625 -55.4521484375 l 1
 421.072265625 347.754882812 l 1
 91.78125 347.754882812 l 1
 50 397.547851562 l 1
 241.510742188 558.245117188 l 1
 421.072265625 558.245117188 l 1
 421.072265625 593.926757812 l 1
 472.290039062 636.903320312 l 1
 91.78125 636.903320312 l 1
 50 686.696289062 l 1
 241.510742188 847.393554688 l 1
 983.663085938 847.393554688 l 1
 1025.44433594 797.600585938 l 1
 833.93359375 636.903320312 l 1
 654.364257812 636.903320312 l 1xb8
EndSplineSet
Validated: 1
EndChar

StartChar: tbar
Encoding: 359 359 156
Width: 1075
Flags: W
HStem: -105.245 21G<446.072 486.688> -105.245 21G<446.072 486.688> 347.755 210.49<241.511 421.072 654.364 833.934> 636.903 210.49<241.511 833.934>
VStem: 421.072 233.292<55.4521 347.755>
AnchorPoint: "Attacha 2" 843 644 basechar 0
AnchorPoint: "Anchora 1" 537 975 basechar 0
AnchorPoint: "Attacha 4 Cedilla" 527 80 basechar 0
AnchorPoint: "Anchora 3" 537 -200 basechar 0
LayerCount: 2
Back
SplineSet
166.646484375 453 m 5
 908.798828125 453 l 1029
537.71875 453 m 5
 537.71875 0 l 1029
166.646484375 742.1484375 m 5
 908.798828125 742.1484375 l 1029
EndSplineSet
Fore
SplineSet
91.78125 636.903320312 m 1x38
 50 686.696289062 l 1
 241.510742188 847.393554688 l 1
 983.663085938 847.393554688 l 1
 1025.44433594 797.600585938 l 1
 833.93359375 636.903320312 l 1
 91.78125 636.903320312 l 1x38
91.78125 347.754882812 m 1
 50 397.547851562 l 1
 241.510742188 558.245117188 l 1
 612.583007812 558.245117188 l 1
 983.663085938 558.245117188 l 1
 1025.44433594 508.452148438 l 1
 833.93359375 347.754882812 l 1
 654.364257812 347.754882812 l 1
 654.364257812 55.4521484375 l 1
 462.853515625 -105.245117188 l 1xb8
 421.072265625 -55.4521484375 l 1
 421.072265625 347.754882812 l 1
 91.78125 347.754882812 l 1
EndSplineSet
Validated: 1
EndChar

StartChar: uni031B
Encoding: 795 795 210
Width: 0
Flags: W
AnchorPoint: "Attacha 2" -230.511 644.273 mark 0
LayerCount: 2
Back
SplineSet
919 643 m 1
 1081 778.000976562 l 25
 1081 898 l 1025
915.05078125 742.1484375 m 1
 915.05078125 0 l 1025
172.896484375 742.1484375 m 1
 172.896484375 0 l 1
 822.28125 0 l 1025
EndSplineSet
Fore
SplineSet
-230.510742188 644.2734375 m 1
 -272.291992188 694.065429688 l 1
 -110.291992188 830 l 1
 -110.291992188 949.065429688 l 1
 81.21875 1109.76269531 l 1
 123 1059.96972656 l 1
 123 939.970703125 l 1
 5.3994140625 841.168945312 -112.334960938 742.5 -230.510742188 644.2734375 c 1
EndSplineSet
Validated: 1
EndChar

StartChar: dotbelowcomb
Encoding: 803 803 374
Width: 1075
Flags: W
HStem: -300 100.115<-571.857 -518.225>
VStem: -663.783 237.484
AnchorPoint: "Anchora 3" -537 -200 mark 0
LayerCount: 2
Fore
SplineSet
-644.5 -300 m 1
 -663.783203125 -277.018554688 l 1
 -571.857421875 -199.884765625 l 1
 -445.58203125 -199.884765625 l 1
 -426.298828125 -222.866210938 l 1
 -518.224609375 -300 l 1
 -644.5 -300 l 1
EndSplineSet
Validated: 1
EndChar

StartChar: hookabovecomb
Encoding: 777 777 425
Width: 1075
Flags: W
HStem: 1073.94 100.116<-591.679 -479.274>
VStem: -683.604 331.209
AnchorPoint: "Anchora 1" -537 975.348 mark 0
LayerCount: 2
Back
SplineSet
-628 1124 m 29
 -408 1124 l 4
 -513 970 l 1028
EndSplineSet
Fore
SplineSet
-479.273571614 1073.94207677 m 1
 -664.320852442 1073.94207677 l 1
 -683.604480732 1096.92341007 l 1
 -591.679147558 1174.05792323 l 1
 -371.679147558 1174.05792323 l 1
 -352.395519268 1151.07658993 l 1
 -457.395519268 997.076589934 l 1
 -549.320852442 919.942076772 l 1
 -568.604480732 942.923410066 l 1
 -479.273571614 1073.94207677 l 1
EndSplineSet
Validated: 1
EndChar

StartChar: AE
Encoding: 198 198 450
Width: 1075
Flags: W
HStem: -105.245 21G<75.353 115.97 445.353 485.97> -105.233 210.502<704.865 834.135> 265.761 210.49<334.865 420.354 653.646 694.407 694.488 732.135> 636.774 210.494<334.865 420.354 704.865 834.135> 827.257 20G<218.03 258.647>
VStem: 50.3538 233.292<55.452 265.761 433.273 636.763> 420.354 233.292<62.2907 265.761 476.251 636.757>
AnchorPoint: "Anchora 1" 537 975 basechar 0
AnchorPoint: "Attacha 2" 843 644 basechar 0
AnchorPoint: "Attacha 4 Cedilla" 537 0 basechar 0
AnchorPoint: "Anchora 3" 537 -200 basechar 0
LayerCount: 2
Back
SplineSet
630 0.0234375 m 5
 909 0.01171875 l 1029
260 742.01171875 m 5
 537 742 l 5
 537 0 l 1029
619.623046875 371.07421875 m 5
 807 371.005859375 l 1029
630 742.0234375 m 5
 909 742.01171875 l 1029
260 371.005859375 m 5
 631 371.005859375 l 1029
167 0 m 5
 167 742.01171875 l 1029
260 371.005859375 m 5
 816 371.005859375 l 1029
167 0 m 5
 167 742.006835938 l 1029
EndSplineSet
Fore
SplineSet
653.646152705 636.774404156 m 1x36
 653.646152705 476.250754987 l 1
 694.406537419 476.250754987 l 1
 694.48800495 476.319114362 l 1
 881.864958075 476.250754987 l 1
 923.646152705 426.457866184 l 1
 732.135041925 265.760963763 l 1
 653.646152705 265.789598295 l 1
 653.646152705 62.2906524166 l 1
 704.864958075 105.268333112 l 1
 983.864958075 105.256614362 l 1
 1025.6461527 55.4637255595 l 1
 834.135041925 -105.233176862 l 1x76
 555.135041925 -105.221458112 l 1
 516.721222902 -59.4416512867 l 1
 462.135041925 -105.244895612 l 1
 420.353847295 -55.4520068095 l 1
 420.353847295 265.760963763 l 1
 283.646152705 265.760963763 l 1
 283.646152705 55.4520068095 l 1
 92.1350419249 -105.244895612 l 1
 50.3538472953 -55.4520068095 l 1
 50.3538472953 686.559711941 l 1
 241.864958075 847.256614362 l 1
 280.290317814 801.463053847 l 1
 334.864958075 847.256614362 l 1xae
 611.864958075 847.244895612 l 1
 650.278777098 801.465088787 l 1
 704.864958075 847.268333112 l 1x36
 983.864958075 847.256614362 l 1x2e
 1025.6461527 797.463725559 l 1
 834.135041925 636.766823138 l 1
 773.972078852 636.766823138 713.809115778 636.774404156 653.646152705 636.774404156 c 1x36
283.646152705 433.273074292 m 1
 334.864958075 476.250754987 l 1
 420.353847295 476.250754987 l 1
 420.353847295 636.756871981 l 1
 374.784615765 636.756871981 329.215384235 636.760233344 283.646152705 636.763048864 c 1
 283.646152705 433.273074292 l 1
EndSplineSet
Validated: 1
EndChar

StartChar: Oslash
Encoding: 216 216 458
Width: 1075
UnlinkRmOvrlpSave: 1
Flags: W
HStem: -105.245 210.49<301.707 781.24> -105.245 21G<74.9995 115.617> -105.245 21G<74.9995 115.617> 636.901 210.49<294.2 773.732> 827.393 20G<959.829 1000.45> 827.393 20G<959.829 1000.45>
VStem: 50 233.292<126.992 633.525> 792.147 233.292<108.621 615.154>
AnchorPoint: "Anchora 1" 537 975 basechar 0
AnchorPoint: "Anchora 3" 537 -200 basechar 0
AnchorPoint: "Attacha 4 Cedilla" 537 0 basechar 0
AnchorPoint: "Attacha 2" 843 644 basechar 0
LayerCount: 2
Back
SplineSet
908.798828125 742.1484375 m 1
 166.646484375 0 l 1025
EndSplineSet
Fore
SplineSet
792.15267542 686.696430691 m 1025x03
792.15267542 686.696430691 m 1
 983.6637862 847.393333112 l 1
 1025.44498083 797.600444309 l 1
 283.29263708 55.4520068095 l 1
 91.7815262999 -105.244895612 l 1x4b
 50.0003316703 -55.4520068095 l 1
 792.15267542 686.696430691 l 1
EndSplineSet
Refer: 40 79 N 1 0 0 1 0 0 2
EndChar

StartChar: oslash
Encoding: 248 248 460
Width: 1075
UnlinkRmOvrlpSave: 1
Flags: W
HStem: -105.245 210.49<301.707 781.24> -105.245 21G<74.9995 115.617> -105.245 21G<74.9995 115.617> 636.901 210.49<294.2 773.732> 827.393 20G<959.829 1000.45> 827.393 20G<959.829 1000.45>
VStem: 50 233.292<126.992 633.525> 792.147 233.292<108.621 615.154>
AnchorPoint: "Anchora 1" 537 975 basechar 0
AnchorPoint: "Attacha 2" 843 644 basechar 0
AnchorPoint: "Anchora 3" 537 -200 basechar 0
AnchorPoint: "Attacha 4 Cedilla" 537 0 basechar 0
LayerCount: 2
Back
SplineSet
908.798828125 742.1484375 m 5
 166.646484375 0 l 1029
EndSplineSet
Fore
SplineSet
792.15267542 686.696430691 m 1x4b
 983.6637862 847.393333112 l 1
 1025.44498083 797.600444309 l 1
 283.29263708 55.4520068095 l 1
 91.7815262999 -105.244895612 l 1
 50.0003316703 -55.4520068095 l 1
 792.15267542 686.696430691 l 1x4b
EndSplineSet
Refer: 72 111 N 1 0 0 1 0 0 2
EndChar

StartChar: uni0327
Encoding: 807 807 482
Width: 1075
Flags: W
HStem: -364.198 137.318<-658.196 -563.764>
VStem: -563.764 151.492<-226.88 -144.187>
AnchorPoint: "Attacha 4 Cedilla" -537.018 0 mark 0
LayerCount: 2
Back
SplineSet
616 -110 m 5
 616 -295.5390625 l 5
 399 -295.5390625 l 1029
EndSplineSet
Refer: 4 67 N 1 0 0 1 -0.219238 0 2
Fore
SplineSet
-563.763671875 -226.879882812 m 1
 -563.763671875 -144.186523438 l 1
 -441.196289062 -41.3408203125 l 1
 -412.271484375 -75.8134765625 l 1
 -412.271484375 -261.352539062 l 1
 -534.838867188 -364.198242188 l 1
 -751.838867188 -364.198242188 l 1
 -780.763671875 -329.725585938 l 1
 -658.196289062 -226.879882812 l 1
 -563.763671875 -226.879882812 l 1
EndSplineSet
Validated: 1
EndChar

StartChar: OE
Encoding: 338 338 486
Width: 1075
Flags: W
HStem: -105.233 210.479<302.878 418.031 653.646 834.135> 636.774 210.494<286.158 400.505 704.865 834.135> 827.245 20G<588.03 628.647>
VStem: 50.3538 233.292<119.035 634.318> 420.354 233.292<105.246 265.761 424.882 622.215>
AnchorPoint: "Anchora 3" 537 -200 basechar 0
AnchorPoint: "Anchora 1" 537 975 basechar 0
AnchorPoint: "Attacha 2" 843 644 basechar 0
AnchorPoint: "Attacha 4 Cedilla" 537 0 basechar 0
LayerCount: 2
Back
SplineSet
357 742.006835938 m 7
 510 742.006835938 537 741 537 463.704101562 c 13
 537 278.163085938 l 21
 537 1 516.028320312 0 357 0 c 4
 350 0 l 5
 342 0 l 7
 192 0 167 1 167 278.302734375 c 6
 167 463.84375 l 6
 167 741 191 742.006835938 342 742.006835938 c 4
 350 742.006835938 l 5
 357 742.006835938 l 7
909 0.01171875 m 5
 537 0 l 5
 537 742 l 1029
630 742.0234375 m 5
 909 742.01171875 l 1029
640 371.005859375 m 5
 816 371.005859375 l 1029
EndSplineSet
Fore
SplineSet
653.646152705 105.246211804 m 1xd8
 983.864958075 105.256614362 l 1
 1025.6461527 55.4637255595 l 1
 834.135041925 -105.233176862 l 1
 462.135041925 -105.244895612 l 1
 433.684714474 -71.3391156625 l 1
 420.127734955 -82.7147721772 l 2
 393.498381511 -105.059452831 350.617515435 -105.244895612 282.135041925 -105.244895612 c 2
 267.135041925 -105.244895612 l 2
 195.528603501 -105.244895612 152.40817632 -105.017007522 126.894924063 -74.6114974852 c 2
 85.113729433 -24.8186086824 l 2
 57.182236736 8.46884808572 50.3538472953 77.9257343488 50.3538472953 222.850727566 c 0
 50.3538472953 408.391743191 50.3538472953 408.391743191 50.3538472953 408.391743191 c 2
 50.3538472953 566.886590329 58.2024470637 635.073677998 93.1619685333 664.408199569 c 2
 284.673079313 825.105101991 l 2
 310.846459305 847.067175489 352.215967363 847.25173155 416.864958075 847.25173155 c 2
 431.864958075 847.25173155 l 2
 504.807734706 847.25173155 549.11187955 847.022887076 575.505121149 816.735369858 c 1
 611.864958075 847.244895612 l 1xb8
 650.278777098 801.465088787 l 1
 704.864958075 847.268333112 l 1
 983.864958075 847.256614362 l 1
 1025.6461527 797.463725559 l 1
 834.135041925 636.766823138 l 1
 773.972078852 636.766823138 713.809115778 636.774404156 653.646152705 636.774404156 c 1
 653.646152705 519.156108372 l 1
 653.646152705 424.88207798 l 1
 714.864958075 476.250754987 l 1
 890.864958075 476.250754987 l 1
 932.646152705 426.457866184 l 1
 741.135041925 265.760963763 l 1
 653.646152705 265.760963763 l 1
 653.646152705 105.246211804 l 1xd8
283.646152705 519.295756809 m 0
 283.646152705 333.754741184 283.646152705 333.754741184 283.646152705 333.754741184 c 2
 283.646152705 223.869976887 287.571758323 157.37143525 301.645255836 117.12899208 c 1
 327.773701326 105.365442587 364.785143283 105.244895612 416.864958075 105.244895612 c 2
 418.030785317 105.244895612 l 1
 419.763718828 137.495155342 420.35384728 176.217598086 420.353847295 222.711077293 c 2
 420.353847295 222.711079128 l 1
 420.353847295 408.252094753 l 2
 420.353847295 517.453538882 416.16655155 583.806686123 401.745655748 624.124062903 c 1
 375.438302702 636.323774251 338.271637837 636.747952485 286.158485361 636.761515329 c 1
 284.321523303 604.511338589 283.646152705 565.789030931 283.646152705 519.295756809 c 0
EndSplineSet
Validated: 1
EndChar

StartChar: uni01F6
Encoding: 502 502 530
Width: 1075
Flags: W
HStem: -105.245 20.8574G<75.1997 115.817 462.135 763.123 817.353 857.97> -105.245 20.8574G<75.1997 115.817 462.135 763.123 817.353 857.97> 827.391 20G<217.877 258.494 960.03 1000.65> 827.391 20G<217.877 258.494 960.03 1000.65>
VStem: 50.2005 233.292<55.452 265.793 433.535 686.694> 420.354 233.292<105.235 308.739 476.287 581.548> 792.354 233.292<105.2 686.552>
AnchorPoint: "Anchora 3" 537 -200 basechar 0
AnchorPoint: "Anchora 1" 537 975 basechar 0
AnchorPoint: "Attacha 4 Cedilla" 537 0 basechar 0
AnchorPoint: "Attacha 2" 843 644 basechar 0
LayerCount: 2
Back
SplineSet
909 742.00390625 m 1
 909 -0.142578125 l 1025
814.153320312 -0.068359375 m 1
 537 0 l 1
 537 637 l 1025
259.616210938 371.07421875 m 1
 444 371.005859375 l 1025
166.846679688 742.146484375 m 1
 166.846679688 0 l 1025
EndSplineSet
Fore
SplineSet
50.2005269828 686.694477566 m 1xae
 241.711637763 847.391379987 l 1
 283.492832392 797.598491184 l 1
 283.492832392 433.53481991 l 1
 334.481169013 476.319114362 l 1
 420.353847295 476.287277493 l 1
 420.353847295 581.547993191 l 1
 611.864958075 742.244895612 l 1
 653.646152705 692.452006809 l 1
 653.646152705 105.234590355 l 1
 792.353847295 105.200378348 l 1
 792.353847295 686.551899441 l 1
 983.864958075 847.248801862 l 1
 1025.6461527 797.455913059 l 1
 1025.6461527 55.3094286845 l 1
 834.135041925 -105.387473737 l 1
 794.910133024 -58.641047635 l 1
 739.288362237 -105.313254987 l 1
 462.135041925 -105.244895612 l 1
 420.353847295 -55.4520068095 l 1
 420.353847295 308.738644458 l 1
 369.135041925 265.760963763 l 1
 283.492832392 265.792715187 l 1
 283.492832392 55.4520068095 l 1
 91.9817216124 -105.244895612 l 1
 50.2005269828 -55.4520068095 l 1
 50.2005269828 686.694477566 l 1xae
EndSplineSet
Validated: 1
EndChar

StartChar: uni0195
Encoding: 405 405 536
Width: 1075
Flags: W
HStem: -105.245 20.8574G<75.1997 115.817 462.135 763.123 817.353 857.97> -105.245 20.8574G<75.1997 115.817 462.135 763.123 817.353 857.97> 827.391 20G<217.877 258.494> 827.391 20G<217.877 258.494>
VStem: 50.2005 233.292<55.452 265.793 433.535 686.694> 420.354 233.292<105.235 308.739 476.287 581.548> 792.354 233.292<105.2 501.548>
AnchorPoint: "Anchora 3" 537 -200 basechar 0
LayerCount: 2
Back
SplineSet
909 557 m 5
 909 -0.142578125 l 1029
814.153320312 -0.068359375 m 5
 537 0 l 5
 537 637 l 1029
259.616210938 371.07421875 m 5
 444 371.005859375 l 1029
166.846679688 742.146484375 m 5
 166.846679688 0 l 1029
EndSplineSet
Fore
SplineSet
50.2005269828 686.694477566 m 1xae
 241.711637763 847.391379987 l 1
 283.492832392 797.598491184 l 1
 283.492832392 433.53481991 l 1
 334.481169013 476.319114362 l 1
 420.353847295 476.287277493 l 1
 420.353847295 581.547993191 l 1
 611.864958075 742.244895612 l 1
 653.646152705 692.452006809 l 1
 653.646152705 105.234590355 l 1
 792.353847295 105.200378348 l 1
 792.353847295 501.547993191 l 1
 983.864958075 662.244895612 l 1
 1025.6461527 612.452006809 l 1
 1025.6461527 55.3094286845 l 1
 834.135041925 -105.387473737 l 1
 794.910133024 -58.641047635 l 1
 739.288362237 -105.313254987 l 1
 462.135041925 -105.244895612 l 1
 420.353847295 -55.4520068095 l 1
 420.353847295 308.738644458 l 1
 369.135041925 265.760963763 l 1
 283.492832392 265.792715187 l 1
 283.492832392 55.4520068095 l 1
 91.9817216124 -105.244895612 l 1
 50.2005269828 -55.4520068095 l 1
 50.2005269828 686.694477566 l 1xae
EndSplineSet
Validated: 1
EndChar
